<svg xmlns="http://www.w3.org/2000/svg" version="1.1" xmlns:xlink="http://www.w3.org/1999/xlink" xmlns:svgjs="http://svgjs.dev/svgjs" viewBox="0 0 28.304929030544287 6.250848482199393">
	<g transform="matrix(1,0,0,1,1.0445322609534333,1.2786995516465713)">
		<g>
			<path d=" M 1.0968156738281252 1.2659018554687496 Q 1.1387131347656252 1.2240043945312498 1.207544677734375 1.1708843994140623 Q 1.276376220703125 1.1177644042968746 1.3743863525390625 1.0713779296874997 Q 1.4723964843750001 1.0249914550781247 1.5988370361328126 0.9935683593749998 Q 1.725277587890625 0.9621452636718746 1.880896728515625 0.9621452636718746 Q 1.9931220703125 0.9621452636718746 2.1008583984375 0.9898275146484372 Q 2.2085947265625 1.0175097656249996 2.2931378173828127 1.0788596191406248 Q 2.3776809082031254 1.1402094726562497 2.4300527343750002 1.2382196044921872 Q 2.482424560546875 1.3362297363281246 2.482424560546875 1.4768854980468746 Q 2.482424560546875 1.5921035156249999 2.43304541015625 1.6938544921874996 Q 2.3836662597656253 1.7956054687499998 2.2968786621093753 1.8816448974609372 Q 2.2100910644531253 1.9676843261718748 2.0933767089843753 2.0357677001953123 Q 1.9766623535156251 2.10385107421875 1.8427401123046876 2.150985717773437 Q 1.70881787109375 2.1981203613281246 1.563673095703125 2.22355810546875 Q 1.4185283203125 2.2489958496093747 1.2748798828125 2.2489958496093747 Q 1.117764404296875 2.2489958496093747 0.9741159667968751 2.21757275390625 Q 0.8304675292968751 2.186149658203125 0.704775146484375 2.1255479736328122 Q 0.5790827636718751 2.0649462890624997 0.47658361816406253 1.9759141845703123 Q 0.37408447265625 1.8868820800781247 0.300763916015625 1.7724122314453123 Q 0.22744335937500001 1.6579423828124997 0.187042236328125 1.5180347900390623 Q 0.14664111328125 1.3781271972656248 0.14664111328125 1.2165227050781247 Q 0.14963378906250002 1.0534218749999997 0.1922794189453125 0.9127661132812497 Q 0.234925048828125 0.7721103515624996 0.30749743652343753 0.6538996582031247 Q 0.38006982421875 0.5356889648437497 0.47957629394531254 0.43917517089843705 Q 0.5790827636718751 0.3426613769531246 0.6950489501953125 0.26859265136718724 Q 0.81101513671875 0.19452392578124966 0.9389520263671876 0.14290026855468696 Q 1.0668889160156252 0.0912766113281247 1.1985666503906252 0.06134985351562472 Q 1.252434814453125 0.047882812499999705 1.3160291748046875 0.0404011230468746 Q 1.37962353515625 0.03291943359374949 1.4477069091796877 0.028430419921874783 Q 1.5157902832031251 0.02394140624999963 1.5876145019531251 0.02244506835937443 Q 1.6594387207031251 0.020948730468749677 1.7312629394531251 0.020948730468749677 Q 1.8674296875 0.020948730468749677 1.9908775634765628 0.02394140624999963 Q 2.114325439453125 0.026934082031249584 2.1966240234375003 0.026934082031249584 Q 2.1801643066406253 0.09726196289062461 2.173430786132813 0.15187829589843727 Q 2.1666972656250003 0.2064946289062497 2.1666972656250003 0.2543774414062496 Q 2.1666972656250003 0.3217126464843747 2.1771716308593754 0.3793216552734371 Q 2.18764599609375 0.4369306640624997 2.2070983886718754 0.5027695312499996 L 2.1397631835937503 0.5057622070312497 Q 2.094873046875 0.40999658203124967 2.0230488281250003 0.33742419433593707 Q 1.951224609375 0.2648518066406247 1.86443701171875 0.21622082519531216 Q 1.7776494140625 0.16758984374999963 1.6796392822265627 0.14364843749999956 Q 1.581629150390625 0.11970703124999948 1.4858635253906252 0.11970703124999948 Q 1.3287480468750001 0.11970703124999948 1.2067965087890626 0.1705825195312496 Q 1.0848449707031251 0.2214580078124997 0.9928201904296876 0.3060010986328121 Q 0.9007954101562501 0.39054418945312475 0.8372010498046876 0.4997768554687496 Q 0.773606689453125 0.6090095214843747 0.7339537353515626 0.7264720458984373 Q 0.69430078125 0.8439345703124996 0.6763447265625 0.9606489257812496 Q 0.658388671875 1.0773632812499998 0.658388671875 1.1761215820312496 Q 0.658388671875 1.3781271972656248 0.716745849609375 1.5494578857421872 Q 0.77510302734375 1.7207885742187496 0.8776021728515626 1.8457327880859373 Q 0.9801013183593751 1.9706770019531248 1.1200089111328126 2.0410048828124996 Q 1.25991650390625 2.1113327636718746 1.424513671875 2.1113327636718746 Q 1.5412280273437502 2.1113327636718746 1.6295119628906252 2.0836505126953124 Q 1.7177958984375001 2.05596826171875 1.7813902587890627 2.0110781249999996 Q 1.8449846191406252 1.9661879882812499 1.8876302490234376 1.9070826416015623 Q 1.9302758789062502 1.8479772949218747 1.9549654541015626 1.7851311035156248 Q 1.979655029296875 1.7222849121093748 1.9901293945312502 1.6594387207031247 Q 2.000603759765625 1.5965925292968748 2.000603759765625 1.5442207031249997 Q 2.000603759765625 1.4574331054687497 1.9721733398437502 1.3796235351562496 Q 1.9437429199218752 1.3018139648437497 1.8898747558593751 1.2434567871093747 Q 1.836006591796875 1.1850996093749997 1.7574488525390626 1.1514320068359372 Q 1.67889111328125 1.1177644042968746 1.578636474609375 1.1177644042968746 Q 1.4903525390625 1.1177644042968746 1.4155356445312501 1.140957641601562 Q 1.3407187500000002 1.1641508789062498 1.2831097412109376 1.1940776367187498 Q 1.2255007324218752 1.2240043945312498 1.1858477783203125 1.2554274902343747 Q 1.14619482421875 1.2868505859374997 1.1282387695312501 1.3018139648437497 L 1.0968156738281252 1.2659018554687496 M 4.927440673828126 2.1547265624999996 Q 4.791273925781251 2.210091064453125 4.682041259765626 2.22954345703125 Q 4.5728085937500005 2.2489958496093747 4.489013671875001 2.2489958496093747 Q 4.38427001953125 2.2489958496093747 4.280274536132813 2.19363134765625 Q 4.176279052734376 2.1382668457031246 4.079765258789063 2.0522274169921872 Q 3.9832514648437507 1.9661879882812499 3.8979602050781255 1.8614443359374997 Q 3.8126689453125007 1.7567006835937498 3.744585571289063 1.6564460449218747 Q 3.6765021972656253 1.5561914062499997 3.629367553710938 1.4738928222656247 Q 3.5822329101562507 1.3915942382812498 3.5627805175781257 1.3511931152343748 Q 3.7528154296875007 1.3197700195312496 3.9024492187500006 1.2374714355468748 Q 3.9667917480468757 1.2015593261718747 4.028141601562501 1.1521801757812498 Q 4.089491455078125 1.1028010253906246 4.137374267578126 1.0354658203124998 Q 4.1852570800781255 0.9681306152343747 4.214435668945313 0.8813430175781247 Q 4.243614257812501 0.7945554199218747 4.243614257812501 0.6838264160156247 Q 4.243614257812501 0.5835717773437497 4.218176513671875 0.5020213623046872 Q 4.192738769531251 0.42047094726562473 4.150841308593751 0.3568765869140622 Q 4.108943847656251 0.2932822265624997 4.053579345703126 0.24764392089843712 Q 3.9982148437500005 0.20200561523437455 3.9383613281250005 0.1720788574218748 Q 3.8785078125000005 0.1421520996093748 3.817906127929688 0.1279368896484372 Q 3.7573044433593754 0.11372167968749958 3.7049326171875006 0.11372167968749958 Q 3.6256267089843757 0.11372167968749958 3.574003051757813 0.13018139648437455 Q 3.5223793945312507 0.1466411132812495 3.4924526367187507 0.17432336425781214 Q 3.4625258789062507 0.20200561523437455 3.451303344726563 0.23866589355468704 Q 3.440080810546876 0.27532617187499975 3.440080810546876 0.31572729492187457 L 3.440080810546876 1.9093271484374998 Q 3.440080810546876 1.9392539062499998 3.449807006835938 1.9751660156249997 Q 3.459533203125001 2.0110781249999996 3.487215454101563 2.042501220703125 Q 3.5148977050781256 2.07392431640625 3.567269531250001 2.0956212158203122 Q 3.6196413574218758 2.117318115234375 3.7049326171875006 2.117318115234375 L 3.7049326171875006 2.1726826171874998 L 2.7023862304687505 2.1726826171874998 L 2.7023862304687505 2.117318115234375 Q 2.7816921386718754 2.117318115234375 2.8325676269531255 2.101606567382812 Q 2.8834431152343756 2.08589501953125 2.9133698730468756 2.058212768554687 Q 2.9432966308593755 2.030530517578125 2.954519165039063 1.9946184082031249 Q 2.9657416992187504 1.9587062988281247 2.9657416992187504 1.9183051757812497 L 2.9657416992187504 0.2783188476562497 Q 2.9657416992187504 0.24839208984374972 2.954519165039063 0.21397631835937458 Q 2.9432966308593755 0.17956054687499967 2.914118041992188 0.15038195800781207 Q 2.8849394531250008 0.12120336914062468 2.8340639648437507 0.10175097656249976 Q 2.7831884765625006 0.08229858398437484 2.7023862304687505 0.08229858398437484 L 2.7023862304687505 0.026934082031249584 L 3.7049326171875006 0.026934082031249584 Q 3.9174125976562504 0.026934082031249584 4.105951171875001 0.06434252929687467 Q 4.294489746093751 0.10175097656249976 4.435893676757813 0.18180505371093703 Q 4.577297607421876 0.26185913085937473 4.660344360351563 0.3868033447265622 Q 4.74339111328125 0.5117475585937497 4.74339111328125 0.6868190917968746 Q 4.74339111328125 0.8349565429687498 4.682789428710938 0.9456855468749996 Q 4.622187744140626 1.0564145507812497 4.522681274414063 1.1357204589843748 Q 4.423174804687501 1.2150263671874997 4.296734252929689 1.2666500244140622 Q 4.170293701171875 1.3182736816406249 4.0386159667968755 1.3482004394531248 Q 4.089491455078125 1.4409733886718747 4.150841308593751 1.5337463378906246 Q 4.2121911621093755 1.6265192871093748 4.279526367187501 1.7118105468749998 Q 4.346861572265626 1.7971018066406248 4.414944946289063 1.8704223632812498 Q 4.483028320312501 1.9437429199218748 4.547370849609376 1.9983592529296872 Q 4.61171337890625 2.0529755859375 4.667826049804688 2.0836505126953124 Q 4.723938720703126 2.1143254394531246 4.767332519531251 2.1143254394531246 Q 4.788281250000001 2.1143254394531246 4.824941528320313 2.10983642578125 Q 4.861601806640626 2.1053474121093747 4.90499560546875 2.087391357421875 L 4.927440673828126 2.1547265624999996 M 6.993883300781251 0.5057622070312497 Q 6.950489501953125 0.41149291992187464 6.8809097900390634 0.33817236328124967 Q 6.811330078125001 0.2648518066406247 6.725290649414063 0.21397631835937458 Q 6.639251220703126 0.16310083007812448 6.5434855957031255 0.13691491699218705 Q 6.447719970703126 0.11072900390624962 6.353450683593751 0.11072900390624962 Q 6.250203369140626 0.11072900390624962 6.158926757812501 0.1473892822265621 Q 6.067650146484375 0.1840495605468746 5.989092407226563 0.24764392089843712 Q 5.910534667968751 0.31123828124999964 5.846192138671876 0.39877404785156223 Q 5.7818496093750005 0.4863098144531246 5.733218627929688 0.5873126220703122 Q 5.684587646484376 0.6883154296874996 5.65316455078125 0.7990444335937497 Q 5.6217414550781255 0.9097734374999997 5.6082744140625005 1.0205024414062498 L 6.883154296875 1.0205024414062498 Q 6.851731201171876 1.0833486328124997 6.835271484375001 1.1529283447265621 Q 6.818811767578126 1.2225080566406246 6.811330078125001 1.2823615722656247 Q 6.80235205078125 1.3526894531249996 6.800855712890626 1.4185283203124999 L 6.751476562500001 1.4275063476562497 Q 6.732024169921876 1.3317407226562499 6.7035937500000005 1.2688945312499997 Q 6.675163330078126 1.2060483398437496 6.618302490234376 1.1701362304687497 Q 6.561441650390625 1.1342241210937496 6.466424194335938 1.1200089111328122 Q 6.371406738281251 1.1057937011718746 6.218780273437501 1.1057937011718746 L 5.59929638671875 1.1057937011718746 L 5.59929638671875 1.1701362304687497 Q 5.59929638671875 1.2913395996093748 5.627726806640625 1.4080539550781248 Q 5.656157226562501 1.5247683105468748 5.7085290527343755 1.630260131835937 Q 5.76090087890625 1.7357519531249999 5.837214111328126 1.8240358886718748 Q 5.913527343750001 1.9123198242187498 6.007796630859376 1.9774105224609373 Q 6.10206591796875 2.042501220703125 6.214291259765625 2.0784133300781247 Q 6.326516601562501 2.1143254394531246 6.452208984375001 2.1143254394531246 Q 6.565930664062501 2.1143254394531246 6.652718261718751 2.0926285400390623 Q 6.739505859375001 2.0709316406249996 6.803100219726563 2.0380122070312496 Q 6.866694580078126 2.0050927734374997 6.91008837890625 1.9654398193359373 Q 6.953482177734376 1.9257868652343748 6.981912597656251 1.8898747558593747 Q 7.010343017578126 1.8539626464843748 7.024558227539064 1.8262803955078122 Q 7.038773437500001 1.7985981445312498 7.046255126953126 1.7896201171874997 L 7.022313720703126 2.0006037597656245 Q 6.98789794921875 2.0484865722656247 6.92205908203125 2.0926285400390623 Q 6.85622021484375 2.1367705078125 6.765691772460938 2.171934448242187 Q 6.675163330078126 2.207098388671875 6.56293798828125 2.2280471191406246 Q 6.450712646484376 2.2489958496093747 6.32053125 2.2489958496093747 Q 6.070642822265626 2.2489958496093747 5.848436645507813 2.1756752929687497 Q 5.62623046875 2.1023547363281248 5.457892456054688 1.9676843261718748 Q 5.289554443359376 1.8330139160156247 5.190047973632813 1.6422308349609374 Q 5.090541503906251 1.4514477539062498 5.0875488281250005 1.2165227050781247 Q 5.092037841796875 0.9741159667968746 5.172091918945313 0.7803402099609371 Q 5.25214599609375 0.5865644531249996 5.386068237304688 0.4421678466796872 Q 5.519990478515625 0.2977712402343746 5.698054687500001 0.20275378417968715 Q 5.876118896484376 0.10773632812499967 6.078124511718751 0.06134985351562472 Q 6.184364501953126 0.035912109374999446 6.322027587890625 0.028430419921874783 Q 6.459690673828126 0.020948730468749677 6.598850097656251 0.020948730468749677 Q 6.733520507812501 0.020948730468749677 6.852479370117188 0.02394140624999963 Q 6.9714382324218755 0.026934082031249584 7.052240478515626 0.026934082031249584 Q 7.035780761718751 0.09726196289062461 7.029047241210938 0.15187829589843727 Q 7.022313720703126 0.2064946289062497 7.022313720703126 0.2543774414062496 Q 7.022313720703126 0.3217126464843747 7.032788085937501 0.3793216552734371 Q 7.043262451171875 0.4369306640624997 7.061218505859376 0.5027695312499996 L 6.993883300781251 0.5057622070312497 M 9.256346191406251 0.5057622070312497 Q 9.212952392578126 0.41149291992187464 9.143372680664063 0.33817236328124967 Q 9.07379296875 0.2648518066406247 8.987753540039062 0.21397631835937458 Q 8.901714111328126 0.16310083007812448 8.805948486328125 0.13691491699218705 Q 8.710182861328125 0.11072900390624962 8.61591357421875 0.11072900390624962 Q 8.512666259765625 0.11072900390624962 8.4213896484375 0.1473892822265621 Q 8.330113037109376 0.1840495605468746 8.251555297851564 0.24764392089843712 Q 8.17299755859375 0.31123828124999964 8.108655029296875 0.39877404785156223 Q 8.0443125 0.4863098144531246 7.995681518554688 0.5873126220703122 Q 7.947050537109376 0.6883154296874996 7.91562744140625 0.7990444335937497 Q 7.884204345703125 0.9097734374999997 7.8707373046875 1.0205024414062498 L 9.145617187500001 1.0205024414062498 Q 9.114194091796875 1.0833486328124997 9.097734375 1.1529283447265621 Q 9.081274658203125 1.2225080566406246 9.07379296875 1.2823615722656247 Q 9.06481494140625 1.3526894531249996 9.063318603515626 1.4185283203124999 L 9.013939453125001 1.4275063476562497 Q 8.994487060546875 1.3317407226562499 8.966056640625 1.2688945312499997 Q 8.937626220703125 1.2060483398437496 8.880765380859376 1.1701362304687497 Q 8.823904541015626 1.1342241210937496 8.728887084960938 1.1200089111328122 Q 8.63386962890625 1.1057937011718746 8.4812431640625 1.1057937011718746 L 7.861759277343751 1.1057937011718746 L 7.861759277343751 1.1701362304687497 Q 7.861759277343751 1.2913395996093748 7.890189697265625 1.4080539550781248 Q 7.9186201171875 1.5247683105468748 7.970991943359375 1.630260131835937 Q 8.023363769531251 1.7357519531249999 8.099677001953125 1.8240358886718748 Q 8.175990234375 1.9123198242187498 8.270259521484375 1.9774105224609373 Q 8.36452880859375 2.042501220703125 8.476754150390626 2.0784133300781247 Q 8.5889794921875 2.1143254394531246 8.714671875 2.1143254394531246 Q 8.8283935546875 2.1143254394531246 8.91518115234375 2.0926285400390623 Q 9.00196875 2.0709316406249996 9.065563110351563 2.0380122070312496 Q 9.129157470703126 2.0050927734374997 9.172551269531251 1.9654398193359373 Q 9.215945068359375 1.9257868652343748 9.24437548828125 1.8898747558593747 Q 9.272805908203125 1.8539626464843748 9.287021118164063 1.8262803955078122 Q 9.301236328125 1.7985981445312498 9.308718017578126 1.7896201171874997 L 9.284776611328125 2.0006037597656245 Q 9.25036083984375 2.0484865722656247 9.18452197265625 2.0926285400390623 Q 9.118683105468751 2.1367705078125 9.028154663085939 2.171934448242187 Q 8.937626220703125 2.207098388671875 8.825400878906251 2.2280471191406246 Q 8.713175537109375 2.2489958496093747 8.582994140625 2.2489958496093747 Q 8.333105712890625 2.2489958496093747 8.110899536132813 2.1756752929687497 Q 7.888693359375001 2.1023547363281248 7.720355346679688 1.9676843261718748 Q 7.5520173339843755 1.8330139160156247 7.452510864257813 1.6422308349609374 Q 7.353004394531251 1.4514477539062498 7.35001171875 1.2165227050781247 Q 7.354500732421875 0.9741159667968746 7.4345548095703125 0.7803402099609371 Q 7.51460888671875 0.5865644531249996 7.6485311279296875 0.4421678466796872 Q 7.782453369140625 0.2977712402343746 7.960517578125001 0.20275378417968715 Q 8.138581787109375 0.10773632812499967 8.34058740234375 0.06134985351562472 Q 8.446827392578125 0.035912109374999446 8.584490478515626 0.028430419921874783 Q 8.722153564453125 0.020948730468749677 8.86131298828125 0.020948730468749677 Q 8.9959833984375 0.020948730468749677 9.114942260742188 0.02394140624999963 Q 9.233901123046875 0.026934082031249584 9.314703369140625 0.026934082031249584 Q 9.29824365234375 0.09726196289062461 9.291510131835938 0.15187829589843727 Q 9.284776611328125 0.2064946289062497 9.284776611328125 0.2543774414062496 Q 9.284776611328125 0.3217126464843747 9.2952509765625 0.3793216552734371 Q 9.305725341796876 0.4369306640624997 9.323681396484375 0.5027695312499996 L 9.256346191406251 0.5057622070312497 M 9.599007568359376 0.026934082031249584 L 10.350169189453126 0.026934082031249584 L 11.48289697265625 1.4035649414062497 L 11.48289697265625 0.2783188476562497 Q 11.48289697265625 0.24839208984374972 11.471674438476564 0.21397631835937458 Q 11.460451904296876 0.17956054687499967 11.431273315429689 0.15038195800781207 Q 11.4020947265625 0.12120336914062468 11.351219238281251 0.10175097656249976 Q 11.30034375 0.08229858398437484 11.219541503906251 0.08229858398437484 L 11.219541503906251 0.026934082031249584 L 11.882419189453126 0.026934082031249584 L 11.882419189453126 0.08229858398437484 Q 11.80012060546875 0.08229858398437484 11.7492451171875 0.09950646972656196 Q 11.698369628906251 0.11671435546874953 11.669191040039063 0.1458929443359369 Q 11.640012451171875 0.17507153320312474 11.6295380859375 0.2124799804687496 Q 11.619063720703126 0.2498884277343747 11.619063720703126 0.2917858886718747 L 11.619063720703126 2.1726826171874998 L 11.48289697265625 2.1726826171874998 L 9.997033447265625 0.3800698242187497 L 9.997033447265625 1.9093271484374998 Q 9.997033447265625 1.9392539062499998 10.006759643554688 1.9751660156249997 Q 10.016485839843751 2.0110781249999996 10.044168090820314 2.042501220703125 Q 10.071850341796875 2.07392431640625 10.123473999023439 2.0956212158203122 Q 10.175097656250001 2.117318115234375 10.260388916015625 2.117318115234375 L 10.260388916015625 2.1726826171874998 L 9.599007568359376 2.1726826171874998 L 9.599007568359376 2.117318115234375 Q 9.679809814453126 2.117318115234375 9.731433471679688 2.1001102294921874 Q 9.78305712890625 2.08290234375 9.812235717773438 2.0544719238281246 Q 9.841414306640626 2.02604150390625 9.851888671875 1.9886330566406247 Q 9.862363037109375 1.9512246093749996 9.862363037109375 1.9093271484374998 L 9.862363037109375 0.21696899414062454 Q 9.826450927734376 0.17656787109374972 9.796524169921875 0.15113012695312467 Q 9.766597412109375 0.12569238281249984 9.735922485351564 0.10998083496093702 Q 9.70524755859375 0.09426928710937466 9.672328125 0.08828393554687475 Q 9.639408691406251 0.08229858398437484 9.599007568359376 0.08229858398437484 L 9.599007568359376 0.026934082031249584 M 14.896043701171877 0.5027695312499996 L 14.82870849609375 0.5057622070312497 Q 14.785314697265626 0.41149291992187464 14.715734985351563 0.33817236328124967 Q 14.6461552734375 0.2648518066406247 14.560115844726564 0.21397631835937458 Q 14.474076416015626 0.16310083007812448 14.378310791015625 0.13691491699218705 Q 14.282545166015625 0.11072900390624962 14.18827587890625 0.11072900390624962 Q 14.07455419921875 0.11072900390624962 13.974299560546875 0.15561914062499982 Q 13.874044921875 0.20050927734374957 13.79025 0.2783188476562497 Q 13.706455078125 0.3561284179687496 13.639868041992187 0.46012390136718717 Q 13.573281005859375 0.5641193847656247 13.527642700195313 0.6815819091796871 Q 13.48200439453125 0.7990444335937497 13.45806298828125 0.9247368164062497 Q 13.434121582031251 1.0504291992187498 13.434121582031251 1.1701362304687497 Q 13.434121582031251 1.2913395996093748 13.462552001953126 1.4080539550781248 Q 13.490982421875 1.5247683105468748 13.543354248046876 1.630260131835937 Q 13.595726074218751 1.7357519531249999 13.672039306640626 1.8240358886718748 Q 13.7483525390625 1.9123198242187498 13.842621826171875 1.9774105224609373 Q 13.93689111328125 2.042501220703125 14.049116455078126 2.0784133300781247 Q 14.161341796875 2.1143254394531246 14.2870341796875 2.1143254394531246 Q 14.400755859375 2.1143254394531246 14.48754345703125 2.0926285400390623 Q 14.574331054687502 2.0709316406249996 14.637925415039064 2.0380122070312496 Q 14.701519775390626 2.0050927734374997 14.744913574218751 1.9654398193359373 Q 14.788307373046877 1.9257868652343748 14.81673779296875 1.8898747558593747 Q 14.845168212890625 1.8539626464843748 14.859383422851563 1.8262803955078122 Q 14.8735986328125 1.7985981445312498 14.881080322265625 1.7896201171874997 L 14.857138916015625 2.0006037597656245 Q 14.818234130859375 2.0529755859375 14.750150756835938 2.0971175537109374 Q 14.6820673828125 2.1412595214843746 14.590790771484375 2.174927124023437 Q 14.49951416015625 2.2085947265624997 14.388036987304687 2.2272989501953124 Q 14.276559814453126 2.2460031738281248 14.15236376953125 2.2460031738281248 Q 13.9877666015625 2.2460031738281248 13.832895629882813 2.213083740234375 Q 13.678024658203125 2.180164306640625 13.541857910156251 2.1188144531249997 Q 13.405691162109376 2.0574645996093746 13.292717651367187 1.9669361572265622 Q 13.179744140625 1.8764077148437497 13.098193725585938 1.7626860351562497 Q 13.016643310546876 1.6489643554687499 12.9702568359375 1.5113012695312498 Q 12.923870361328126 1.3736381835937497 12.9223740234375 1.2165227050781247 Q 12.926863037109376 0.9741159667968746 13.006917114257813 0.7803402099609371 Q 13.086971191406251 0.5865644531249996 13.220893432617189 0.4421678466796872 Q 13.354815673828126 0.2977712402343746 13.5328798828125 0.20275378417968715 Q 13.710944091796875 0.10773632812499967 13.91294970703125 0.06134985351562472 Q 14.019189697265626 0.035912109374999446 14.156852783203126 0.028430419921874783 Q 14.294515869140625 0.020948730468749677 14.43367529296875 0.020948730468749677 Q 14.568345703125 0.020948730468749677 14.687304565429688 0.02394140624999963 Q 14.806263427734375 0.026934082031249584 14.887065673828126 0.026934082031249584 Q 14.87060595703125 0.09726196289062461 14.863872436523438 0.15187829589843727 Q 14.857138916015625 0.2064946289062497 14.857138916015625 0.2543774414062496 Q 14.857138916015625 0.3217126464843747 14.867613281250001 0.3793216552734371 Q 14.878087646484376 0.4369306640624997 14.896043701171877 0.5027695312499996 M 17.39043896484375 2.1547265624999996 Q 17.254272216796874 2.210091064453125 17.14503955078125 2.22954345703125 Q 17.035806884765627 2.2489958496093747 16.952011962890627 2.2489958496093747 Q 16.847268310546877 2.2489958496093747 16.743272827148438 2.19363134765625 Q 16.63927734375 2.1382668457031246 16.54276354980469 2.0522274169921872 Q 16.446249755859377 1.9661879882812499 16.36095849609375 1.8614443359374997 Q 16.275667236328125 1.7567006835937498 16.207583862304688 1.6564460449218747 Q 16.13950048828125 1.5561914062499997 16.09236584472656 1.4738928222656247 Q 16.045231201171877 1.3915942382812498 16.02577880859375 1.3511931152343748 Q 16.215813720703125 1.3197700195312496 16.365447509765627 1.2374714355468748 Q 16.4297900390625 1.2015593261718747 16.491139892578126 1.1521801757812498 Q 16.55248974609375 1.1028010253906246 16.60037255859375 1.0354658203124998 Q 16.64825537109375 0.9681306152343747 16.677433959960936 0.8813430175781247 Q 16.706612548828126 0.7945554199218747 16.706612548828126 0.6838264160156247 Q 16.706612548828126 0.5835717773437497 16.6811748046875 0.5020213623046872 Q 16.655737060546876 0.42047094726562473 16.613839599609374 0.3568765869140622 Q 16.571942138671876 0.2932822265624997 16.51657763671875 0.24764392089843712 Q 16.461213134765625 0.20200561523437455 16.401359619140624 0.1720788574218748 Q 16.341506103515627 0.1421520996093748 16.280904418945312 0.1279368896484372 Q 16.220302734375 0.11372167968749958 16.167930908203125 0.11372167968749958 Q 16.088625 0.11372167968749958 16.037001342773436 0.13018139648437455 Q 15.985377685546876 0.1466411132812495 15.955450927734375 0.17432336425781214 Q 15.925524169921875 0.20200561523437455 15.914301635742188 0.23866589355468704 Q 15.9030791015625 0.27532617187499975 15.9030791015625 0.31572729492187457 L 15.9030791015625 1.9093271484374998 Q 15.9030791015625 1.9392539062499998 15.912805297851563 1.9751660156249997 Q 15.922531494140625 2.0110781249999996 15.950213745117187 2.042501220703125 Q 15.97789599609375 2.07392431640625 16.030267822265625 2.0956212158203122 Q 16.0826396484375 2.117318115234375 16.167930908203125 2.117318115234375 L 16.167930908203125 2.1726826171874998 L 15.165384521484375 2.1726826171874998 L 15.165384521484375 2.117318115234375 Q 15.2446904296875 2.117318115234375 15.29556591796875 2.101606567382812 Q 15.346441406250001 2.08589501953125 15.3763681640625 2.058212768554687 Q 15.406294921875 2.030530517578125 15.417517456054687 1.9946184082031249 Q 15.428739990234375 1.9587062988281247 15.428739990234375 1.9183051757812497 L 15.428739990234375 0.2783188476562497 Q 15.428739990234375 0.24839208984374972 15.417517456054687 0.21397631835937458 Q 15.406294921875 0.17956054687499967 15.377116333007812 0.15038195800781207 Q 15.347937744140625 0.12120336914062468 15.297062255859375 0.10175097656249976 Q 15.246186767578125 0.08229858398437484 15.165384521484375 0.08229858398437484 L 15.165384521484375 0.026934082031249584 L 16.167930908203125 0.026934082031249584 Q 16.380410888671875 0.026934082031249584 16.568949462890625 0.06434252929687467 Q 16.757488037109376 0.10175097656249976 16.898891967773437 0.18180505371093703 Q 17.0402958984375 0.26185913085937473 17.12334265136719 0.3868033447265622 Q 17.206389404296875 0.5117475585937497 17.206389404296875 0.6868190917968746 Q 17.206389404296875 0.8349565429687498 17.145787719726563 0.9456855468749996 Q 17.08518603515625 1.0564145507812497 16.985679565429688 1.1357204589843748 Q 16.886173095703125 1.2150263671874997 16.75973254394531 1.2666500244140622 Q 16.6332919921875 1.3182736816406249 16.501614257812502 1.3482004394531248 Q 16.55248974609375 1.4409733886718747 16.613839599609374 1.5337463378906246 Q 16.675189453125 1.6265192871093748 16.742524658203124 1.7118105468749998 Q 16.80985986328125 1.7971018066406248 16.877943237304688 1.8704223632812498 Q 16.946026611328126 1.9437429199218748 17.010369140625002 1.9983592529296872 Q 17.074711669921875 2.0529755859375 17.13082434082031 2.0836505126953124 Q 17.18693701171875 2.1143254394531246 17.230330810546874 2.1143254394531246 Q 17.251279541015627 2.1143254394531246 17.28793981933594 2.10983642578125 Q 17.32460009765625 2.1053474121093747 17.367993896484375 2.087391357421875 L 17.39043896484375 2.1547265624999996 M 20.019504638671876 2.093376708984375 Q 19.883337890625 2.1487412109374997 19.771112548828125 2.1681936035156246 Q 19.65888720703125 2.18764599609375 19.569106933593748 2.18764599609375 Q 19.49728271484375 2.18764599609375 19.444910888671874 2.1794161376953123 Q 19.3925390625 2.1711862792968746 19.355130615234373 2.1592155761718748 Q 19.31173681640625 2.1457485351562497 19.280313720703123 2.129288818359375 Q 19.214474853515625 2.0918803710937497 19.165095703124997 2.0320268554687497 Q 19.115716552734373 1.9721733398437498 19.07606359863281 1.9033417968749997 Q 19.036410644531248 1.8345102539062497 19.004987548828126 1.7611896972656247 Q 18.973564453125 1.6878691406249997 18.9436376953125 1.6235266113281246 L 18.906229248046873 1.5442207031249997 Q 18.75509912109375 1.5876145019531247 18.62416955566406 1.6437271728515621 Q 18.493239990234375 1.6998398437499997 18.391489013671872 1.7544561767578122 Q 18.289738037109373 1.8090725097656248 18.22015832519531 1.8547108154296872 Q 18.150578613281247 1.9003491210937498 18.122148193359376 1.9212978515624997 Q 18.06678369140625 1.9826477050781248 17.9979521484375 2.030530517578125 Q 17.92912060546875 2.0784133300781247 17.843829345703124 2.112080932617187 Q 17.7585380859375 2.1457485351562497 17.65379443359375 2.16370458984375 Q 17.54905078125 2.1816606445312496 17.4233583984375 2.1816606445312496 L 17.40839501953125 2.117318115234375 Q 17.553539794921875 2.093376708984375 17.659031616210935 2.0245451660156246 Q 17.7645234375 1.9557136230468748 17.840836669921874 1.8547108154296872 Q 17.91714990234375 1.7537080078124998 17.97101806640625 1.6272674560546871 Q 18.02488623046875 1.5008269042968747 18.06678369140625 1.3601711425781247 Q 18.09072509765625 1.2793688964843746 18.130378051757813 1.1895886230468746 Q 18.170031005859375 1.0998083496093747 18.22614367675781 1.0152652587890623 Q 18.28225634765625 0.9307221679687496 18.35482873535156 0.8566534423828123 Q 18.427401123046874 0.7825847167968747 18.520174072265625 0.7317092285156246 Q 18.494736328125 0.6838264160156247 18.470046752929687 0.6336990966796872 Q 18.445357177734373 0.5835717773437497 18.422912109374998 0.5326962890624996 Q 18.391489013671872 0.4728427734374996 18.36006591796875 0.4002703857421872 Q 18.328642822265625 0.3276979980468746 18.285997192382812 0.26559997558593706 Q 18.2433515625 0.20350195312499952 18.185742553710938 0.16160449218749973 Q 18.128133544921873 0.11970703124999948 18.042842285156247 0.11970703124999948 Q 17.98298876953125 0.11970703124999948 17.925379760742185 0.1331740722656245 Q 17.867770751953124 0.1466411132812495 17.81539892578125 0.16609350585937444 L 17.7944501953125 0.10474365234374972 Q 17.924631591796874 0.06134985351562472 18.05855383300781 0.030674926757812138 Q 18.19247607421875 -4.440892098500626e-16 18.32415380859375 -4.440892098500626e-16 Q 18.387 -4.440892098500626e-16 18.448349853515623 0.008229858398437262 Q 18.50969970703125 0.016459716796874524 18.566560546875 0.037408447265624645 Q 18.615939697265624 0.05536450195312481 18.662326171874998 0.09651379394531201 Q 18.708712646484376 0.13766308593749965 18.750610107421874 0.19377575683593706 Q 18.792507568359373 0.2498884277343747 18.829167846679688 0.3142309570312496 Q 18.865828125 0.3785734863281247 18.897999389648437 0.4429160156249996 Q 18.930170654296873 0.5072585449218747 18.956356567382812 0.5648675537109371 Q 18.982542480468748 0.6224765624999997 19.001994873046876 0.6643740234374997 Q 19.133672607421875 0.9471818847656246 19.26385400390625 1.2307379150390623 Q 19.394035400390624 1.5142939453124997 19.543669189453123 1.7896201171874997 Q 19.570603271484373 1.8389992675781248 19.601278198242188 1.8868820800781247 Q 19.631953125 1.9347648925781247 19.670109741210936 1.9721733398437498 Q 19.708266357421873 2.009581787109375 19.754652832031248 2.0320268554687497 Q 19.801039306640625 2.0544719238281246 19.859396484374997 2.0529755859375 Q 19.88034521484375 2.0529755859375 19.917005493164062 2.0484865722656247 Q 19.953665771484374 2.04399755859375 19.997059570312498 2.02604150390625 L 20.019504638671876 2.093376708984375 M 18.603968994140622 0.9037880859374996 Q 18.565064208984374 0.9666342773437497 18.532892944335938 1.0339694824218746 Q 18.500721679687498 1.1013046874999997 18.473787597656248 1.1708843994140623 Q 18.446853515624998 1.2404641113281247 18.424408447265623 1.3092956542968746 Q 18.40196337890625 1.3781271972656248 18.379518310546874 1.4409733886718747 Q 18.3570732421875 1.5098049316406246 18.33088732910156 1.5748956298828123 Q 18.304701416015625 1.6399863281249998 18.271781982421874 1.7013361816406247 Q 18.38400732421875 1.6354973144531249 18.535137451171874 1.5636730957031246 Q 18.686267578124998 1.4918488769531248 18.858346435546874 1.4409733886718747 L 18.603968994140622 0.9037880859374996 M 21.406609863281247 2.1726826171874998 L 20.4040634765625 2.1726826171874998 L 20.4040634765625 2.117318115234375 Q 20.486362060546874 2.117318115234375 20.537237548828124 2.1001102294921874 Q 20.588113037109373 2.08290234375 20.61729162597656 2.0544719238281246 Q 20.64647021484375 2.02604150390625 20.65694458007812 1.9886330566406247 Q 20.667418945312498 1.9512246093749996 20.667418945312498 1.9093271484374998 L 20.667418945312498 0.14364843749999956 L 20.477384033203123 0.14364843749999956 Q 20.398078124999998 0.14364843749999956 20.310542358398436 0.15636730957031197 Q 20.223006591796874 0.16908618164062483 20.136218994140624 0.2057464599609371 Q 20.049431396484373 0.2424067382812496 19.968629150390623 0.3067492675781247 Q 19.887826904296872 0.3710917968749996 19.821988037109374 0.47433911132812456 L 19.76063818359375 0.4653610839843747 Q 19.80103930664062 0.40251489257812456 19.822736206054685 0.32694982910156223 Q 19.84443310546875 0.2513847656249997 19.856403808593747 0.1840495605468746 Q 19.86837451171875 0.10623999023437447 19.8713671875 0.026934082031249584 L 21.95726220703125 0.026934082031249584 Q 21.936313476562496 0.06883154296874983 21.9243427734375 0.11372167968749958 Q 21.912372070312497 0.15861181640624977 21.904890380859374 0.20275378417968715 Q 21.89740869140625 0.24689575195312474 21.895164184570312 0.2865487060546872 Q 21.892919677734373 0.32620166015624963 21.892919677734373 0.3561284179687496 Q 21.892919677734373 0.3725881347656246 21.892919677734373 0.3853070068359372 Q 21.892919677734373 0.39802587890624963 21.894416015624998 0.4070039062499997 Q 21.895912353515623 0.41747827148437455 21.89740869140625 0.42645629882812464 L 21.842044189453123 0.4354343261718747 Q 21.836058837890622 0.36809912109374965 21.803887573242186 0.3202163085937497 Q 21.77171630859375 0.27233349609374957 21.72458166503906 0.24016223144531224 Q 21.677447021484372 0.20799096679687468 21.620586181640622 0.18853857421874953 Q 21.56372534179687 0.16908618164062483 21.50910900878906 0.15935998535156193 Q 21.454492675781246 0.14963378906249947 21.406609863281247 0.1466411132812495 Q 21.358727050781248 0.14364843749999956 21.330296630859372 0.14364843749999956 L 21.143254394531247 0.14364843749999956 L 21.143254394531247 1.9093271484374998 Q 21.143254394531247 1.9392539062499998 21.152232421875 1.9751660156249997 Q 21.16121044921875 2.0110781249999996 21.18964086914062 2.042501220703125 Q 21.218071289062497 2.07392431640625 21.26969494628906 2.0956212158203122 Q 21.32131860351562 2.117318115234375 21.406609863281247 2.117318115234375 L 21.406609863281247 2.1726826171874998 M 23.975822021484372 0.5057622070312497 Q 23.93242822265625 0.41149291992187464 23.862848510742186 0.33817236328124967 Q 23.793268798828123 0.2648518066406247 23.707229370117187 0.21397631835937458 Q 23.62118994140625 0.16310083007812448 23.525424316406248 0.13691491699218705 Q 23.42965869140625 0.11072900390624962 23.335389404296873 0.11072900390624962 Q 23.232142089843748 0.11072900390624962 23.14086547851562 0.1473892822265621 Q 23.0495888671875 0.1840495605468746 22.971031127929685 0.24764392089843712 Q 22.892473388671874 0.31123828124999964 22.828130859374998 0.39877404785156223 Q 22.763788330078125 0.4863098144531246 22.71515734863281 0.5873126220703122 Q 22.666526367187497 0.6883154296874996 22.635103271484372 0.7990444335937497 Q 22.60368017578125 0.9097734374999997 22.590213134765623 1.0205024414062498 L 23.865093017578122 1.0205024414062498 Q 23.833669921875 1.0833486328124997 23.817210205078123 1.1529283447265621 Q 23.80075048828125 1.2225080566406246 23.793268798828123 1.2823615722656247 Q 23.784290771484372 1.3526894531249996 23.782794433593747 1.4185283203124999 L 23.733415283203122 1.4275063476562497 Q 23.713962890624998 1.3317407226562499 23.685532470703123 1.2688945312499997 Q 23.657102050781248 1.2060483398437496 23.600241210937497 1.1701362304687497 Q 23.543380371093747 1.1342241210937496 23.44836291503906 1.1200089111328122 Q 23.35334545898437 1.1057937011718746 23.200718994140622 1.1057937011718746 L 22.581235107421872 1.1057937011718746 L 22.581235107421872 1.1701362304687497 Q 22.581235107421872 1.2913395996093748 22.609665527343747 1.4080539550781248 Q 22.638095947265622 1.5247683105468748 22.690467773437497 1.630260131835937 Q 22.742839599609372 1.7357519531249999 22.819152832031246 1.8240358886718748 Q 22.895466064453124 1.9123198242187498 22.989735351562498 1.9774105224609373 Q 23.084004638671875 2.042501220703125 23.196229980468747 2.0784133300781247 Q 23.308455322265623 2.1143254394531246 23.434147705078125 2.1143254394531246 Q 23.547869384765622 2.1143254394531246 23.634656982421873 2.0926285400390623 Q 23.721444580078124 2.0709316406249996 23.785038940429686 2.0380122070312496 Q 23.84863330078125 2.0050927734374997 23.892027099609372 1.9654398193359373 Q 23.9354208984375 1.9257868652343748 23.963851318359374 1.8898747558593747 Q 23.99228173828125 1.8539626464843748 24.006496948242187 1.8262803955078122 Q 24.020712158203125 1.7985981445312498 24.028193847656247 1.7896201171874997 L 24.004252441406248 2.0006037597656245 Q 23.96983666992187 2.0484865722656247 23.903997802734374 2.0926285400390623 Q 23.838158935546872 2.1367705078125 23.74763049316406 2.171934448242187 Q 23.657102050781248 2.207098388671875 23.544876708984372 2.2280471191406246 Q 23.432651367187496 2.2489958496093747 23.30246997070312 2.2489958496093747 Q 23.05258154296875 2.2489958496093747 22.830375366210937 2.1756752929687497 Q 22.608169189453122 2.1023547363281248 22.43983117675781 1.9676843261718748 Q 22.2714931640625 1.8330139160156247 22.171986694335935 1.6422308349609374 Q 22.07248022460937 1.4514477539062498 22.069487548828125 1.2165227050781247 Q 22.073976562499997 0.9741159667968746 22.154030639648436 0.7803402099609371 Q 22.234084716796872 0.5865644531249996 22.36800695800781 0.4421678466796872 Q 22.501929199218747 0.2977712402343746 22.679993408203124 0.20275378417968715 Q 22.858057617187498 0.10773632812499967 23.06006323242187 0.06134985351562472 Q 23.166303222656246 0.035912109374999446 23.303966308593747 0.028430419921874783 Q 23.441629394531247 0.020948730468749677 23.580788818359373 0.020948730468749677 Q 23.715459228515623 0.020948730468749677 23.83441809082031 0.02394140624999963 Q 23.953376953124998 0.026934082031249584 24.034179199218748 0.026934082031249584 Q 24.017719482421874 0.09726196289062461 24.01098596191406 0.15187829589843727 Q 24.004252441406248 0.2064946289062497 24.004252441406248 0.2543774414062496 Q 24.004252441406248 0.3217126464843747 24.014726806640624 0.3793216552734371 Q 24.025201171874997 0.4369306640624997 24.0431572265625 0.5027695312499996 L 23.975822021484372 0.5057622070312497" fill="url(#gradient-114ce791-3a2b-4a69-aa70-81b1d46052a1)" fill-rule="nonzero"></path>
		</g>
		<g>
			<path d=" M 0.5915977038574243 3.41212437890625 C 0.5915977038574243 3.4016618789062503 0.5974102038574243 3.39701187890625 0.6067102038574242 3.39701187890625 L 0.7671352038574243 3.39701187890625 C 0.8229352038574242 3.39701187890625 0.8589727038574243 3.41561187890625 0.8798977038574243 3.41561187890625 C 0.8915227038574243 3.41561187890625 0.9031477038574243 3.39584937890625 0.9112852038574243 3.37143687890625 C 0.9194227038574243 3.34702437890625 0.9263977038574243 3.32842437890625 0.9263977038574243 3.31563687890625 C 0.9263977038574243 3.3074993789062503 0.9205852038574243 3.30517437890625 0.9089602038574243 3.30517437890625 L 0.6067102038574242 3.30517437890625 C 0.5974102038574243 3.30517437890625 0.5915977038574243 3.30052437890625 0.5915977038574243 3.29006187890625 C 0.5915977038574243 3.2040368789062503 0.5950852038574242 3.09592437890625 0.5950852038574242 3.04593687890625 C 0.5950852038574242 3.03198687890625 0.6020602038574243 3.02501187890625 0.6160102038574242 3.02501187890625 L 0.8368852038574243 3.02501187890625 C 0.9159352038574243 3.02501187890625 0.9612727038574242 3.05523687890625 0.9821977038574243 3.05523687890625 C 0.9938227038574243 3.05523687890625 1.0077727038574245 3.02384937890625 1.0159102038574241 2.99943687890625 C 1.0240477038574243 2.97502437890625 1.0310227038574244 2.95642437890625 1.0310227038574244 2.94363687890625 C 1.0310227038574244 2.93317437890625 1.0252102038574242 2.93317437890625 1.0135852038574242 2.93317437890625 L 0.5032477038574242 2.93317437890625 C 0.48697270385742425 2.93317437890625 0.47534770385742425 2.94131187890625 0.47534770385742425 2.95991187890625 C 0.47534770385742425 3.01687437890625 0.48464770385742423 3.11568687890625 0.48464770385742423 3.32609937890625 C 0.48464770385742423 3.52372437890625 0.47534770385742425 3.62369937890625 0.47534770385742425 3.6667118789062503 C 0.47534770385742425 3.68531187890625 0.48697270385742425 3.69344937890625 0.5032477038574242 3.69344937890625 L 0.5718352038574243 3.69344937890625 C 0.5881102038574243 3.69344937890625 0.5997352038574243 3.68531187890625 0.5997352038574243 3.6667118789062503 C 0.5997352038574243 3.62369937890625 0.5915977038574243 3.52604937890625 0.5915977038574243 3.41212437890625 M 1.8650013391113307 3.36446187890625 C 1.9649763391113306 3.30052437890625 2.0451888391113306 3.23542437890625 2.0451888391113306 3.13196187890625 C 2.0451888391113306 2.9866493789062503 1.9463763391113307 2.93317437890625 1.7824638391113306 2.93317437890625 L 1.4953263391113307 2.93317437890625 C 1.4790513391113307 2.93317437890625 1.4674263391113307 2.94131187890625 1.4674263391113307 2.95991187890625 C 1.4674263391113307 3.01687437890625 1.4767263391113306 3.11568687890625 1.4767263391113306 3.32609937890625 C 1.4767263391113306 3.52372437890625 1.4674263391113307 3.64694937890625 1.4674263391113307 3.6667118789062503 C 1.4674263391113307 3.68531187890625 1.4790513391113307 3.69344937890625 1.4953263391113307 3.69344937890625 L 1.5639138391113305 3.69344937890625 C 1.5801888391113306 3.69344937890625 1.5918138391113306 3.68531187890625 1.5918138391113306 3.6667118789062503 C 1.5918138391113306 3.64694937890625 1.5871638391113305 3.5609243789062504 1.5871638391113305 3.48768687890625 C 1.5871638391113305 3.47373687890625 1.5953013391113307 3.46792437890625 1.6080888391113306 3.46211187890625 C 1.6255263391113306 3.45397437890625 1.7336388391113307 3.41909937890625 1.7394513391113307 3.41909937890625 C 1.7452638391113307 3.41909937890625 1.7534013391113308 3.42607437890625 1.7615388391113307 3.4365368789062503 C 1.8533763391113307 3.54464937890625 1.8696513391113307 3.58882437890625 1.9208013391113306 3.65741187890625 C 1.9405638391113307 3.68414937890625 1.9452138391113307 3.69344937890625 1.9696263391113307 3.69344937890625 L 2.0823888391113305 3.69344937890625 C 2.096338839111331 3.69344937890625 2.1009888391113307 3.68414937890625 2.1009888391113307 3.67484937890625 C 2.1009888391113307 3.65973687890625 2.0800638391113306 3.64578687890625 2.0707638391113306 3.63648687890625 C 1.9707888391113306 3.5388368789062503 1.9359138391113306 3.48652437890625 1.8638388391113307 3.3900368789062503 C 1.8591888391113307 3.38422437890625 1.8557013391113306 3.3795743789062502 1.8557013391113306 3.37492437890625 C 1.8557013391113306 3.37027437890625 1.8591888391113307 3.3679493789062502 1.8650013391113307 3.36446187890625 M 1.5871638391113305 3.35051187890625 L 1.5871638391113305 3.04593687890625 C 1.5871638391113305 3.03198687890625 1.5941388391113307 3.02501187890625 1.6080888391113306 3.02501187890625 L 1.8022263391113307 3.02501187890625 C 1.8789513391113306 3.02501187890625 1.9301013391113306 3.07151187890625 1.9301013391113306 3.12731187890625 C 1.9301013391113306 3.18892437890625 1.8661638391113307 3.24704937890625 1.7929263391113306 3.28889937890625 C 1.7196888391113307 3.3307493789062503 1.6046013391113307 3.36213687890625 1.6046013391113307 3.36213687890625 C 1.5953013391113307 3.36446187890625 1.5871638391113305 3.36329937890625 1.5871638391113305 3.35051187890625 M 2.6990004089355497 3.30517437890625 C 2.6897004089355496 3.30517437890625 2.6838879089355494 3.30052437890625 2.6838879089355494 3.29006187890625 C 2.6838879089355494 3.2040368789062503 2.6873754089355497 3.09592437890625 2.6873754089355497 3.04593687890625 C 2.6873754089355497 3.03198687890625 2.6943504089355494 3.02501187890625 2.70830040893555 3.02501187890625 L 2.9291754089355497 3.02501187890625 C 3.00822540893555 3.02501187890625 3.0535629089355494 3.05523687890625 3.0744879089355495 3.05523687890625 C 3.08611290893555 3.05523687890625 3.10006290893555 3.02384937890625 3.1082004089355495 2.99943687890625 C 3.1163379089355496 2.97502437890625 3.12331290893555 2.95642437890625 3.12331290893555 2.94363687890625 C 3.12331290893555 2.93782437890625 3.1175004089355496 2.93317437890625 3.1058754089355496 2.93317437890625 L 2.5955379089355497 2.93317437890625 C 2.5792629089355494 2.93317437890625 2.5676379089355494 2.94131187890625 2.5676379089355494 2.95991187890625 C 2.5676379089355494 3.01687437890625 2.5769379089355495 3.11568687890625 2.5769379089355495 3.32609937890625 C 2.5769379089355495 3.52372437890625 2.5676379089355494 3.62369937890625 2.5676379089355494 3.6667118789062503 C 2.5676379089355494 3.68531187890625 2.5792629089355494 3.69344937890625 2.5955379089355497 3.69344937890625 L 3.0930879089355496 3.69344937890625 C 3.1070379089355495 3.69344937890625 3.1163379089355496 3.6911243789062502 3.1198254089355495 3.67484937890625 C 3.1268004089355497 3.6422993789062503 3.1442379089355494 3.5864993789062503 3.1442379089355494 3.57022437890625 C 3.1442379089355494 3.55859937890625 3.1384254089355497 3.55511187890625 3.1302879089355495 3.55511187890625 C 3.10936290893555 3.55511187890625 3.0605379089355496 3.60161187890625 2.9175504089355497 3.60161187890625 L 2.7048129089355495 3.60161187890625 C 2.6943504089355494 3.60161187890625 2.6873754089355497 3.59579937890625 2.6873754089355497 3.58301187890625 C 2.6873754089355497 3.5609243789062504 2.6838879089355494 3.48768687890625 2.6838879089355494 3.41212437890625 C 2.6838879089355494 3.4016618789062503 2.6897004089355496 3.39701187890625 2.6990004089355497 3.39701187890625 L 2.8594254089355498 3.39701187890625 C 2.91522540893555 3.39701187890625 2.9512629089355498 3.41561187890625 2.97218790893555 3.41561187890625 C 2.9838129089355494 3.41561187890625 2.99543790893555 3.39584937890625 3.0035754089355495 3.37143687890625 C 3.0117129089355497 3.34702437890625 3.01868790893555 3.32842437890625 3.01868790893555 3.31563687890625 C 3.01868790893555 3.30517437890625 3.0117129089355497 3.30517437890625 3.0000879089355497 3.30517437890625 M 4.115393814697269 3.08894937890625 C 4.1246938146972685 3.08894937890625 4.129343814697268 3.08197437890625 4.129343814697268 3.07267437890625 C 4.129343814697268 3.03779937890625 4.117718814697269 2.9971118789062503 4.117718814697269 2.95874937890625 C 4.117718814697269 2.94247437890625 4.107256314697269 2.93433687890625 4.095631314697268 2.93317437890625 C 4.063081314697269 2.92852437890625 4.004956314697268 2.92038687890625 3.8828938146972685 2.92038687890625 C 3.7247938146972683 2.92038687890625 3.6190063146972684 3.0098993789062503 3.6190063146972684 3.12266187890625 C 3.6190063146972684 3.38654937890625 4.061918814697268 3.29936187890625 4.060756314697269 3.4818743789062503 C 4.059593814697268 3.5632493789062503 3.9851938146972685 3.61207437890625 3.8817313146972685 3.61207437890625 C 3.7782688146972685 3.61207437890625 3.6992188146972684 3.54697437890625 3.6713188146972686 3.5062868789062502 C 3.6562063146972683 3.48419937890625 3.6457438146972687 3.46792437890625 3.6341188146972687 3.46792437890625 C 3.6224938146972687 3.46792437890625 3.6143563146972686 3.47722437890625 3.6143563146972686 3.49582437890625 C 3.6143563146972686 3.54464937890625 3.6038938146972685 3.59579937890625 3.6038938146972685 3.6190493789062503 C 3.6038938146972685 3.63648687890625 3.6201688146972684 3.6434618789062503 3.6341188146972687 3.64811187890625 C 3.6759688146972684 3.66206187890625 3.7538563146972685 3.70507437890625 3.8828938146972685 3.70507437890625 C 4.056106314697269 3.70507437890625 4.177006314697269 3.61556187890625 4.177006314697269 3.45164937890625 C 4.177006314697269 3.20054937890625 3.7329313146972685 3.28424937890625 3.7329313146972685 3.11917437890625 C 3.7329313146972685 3.0563993789062502 3.7933813146972684 3.01803687890625 3.8782438146972686 3.01803687890625 C 4.059593814697268 3.01803687890625 4.084006314697269 3.08894937890625 4.115393814697269 3.08894937890625 M 4.786602583007816 3.4574618789062503 C 4.786602583007816 3.4481618789062503 4.790090083007816 3.44351187890625 4.7993900830078156 3.44351187890625 C 4.842402583007815 3.44118687890625 4.904015083007816 3.44002437890625 5.001665083007816 3.44002437890625 C 5.0993150830078156 3.44002437890625 5.160927583007815 3.44118687890625 5.203940083007816 3.44351187890625 C 5.213240083007816 3.44351187890625 5.216727583007816 3.4481618789062503 5.216727583007816 3.4574618789062503 C 5.216727583007816 3.5062868789062502 5.212077583007815 3.64694937890625 5.212077583007815 3.6667118789062503 C 5.212077583007815 3.68531187890625 5.223702583007816 3.69344937890625 5.239977583007816 3.69344937890625 L 5.3085650830078155 3.69344937890625 C 5.324840083007816 3.69344937890625 5.336465083007815 3.68531187890625 5.336465083007815 3.6667118789062503 C 5.336465083007815 3.64694937890625 5.327165083007816 3.5062868789062502 5.327165083007816 3.30866187890625 C 5.327165083007816 3.11219937890625 5.336465083007815 2.97967437890625 5.336465083007815 2.95991187890625 C 5.336465083007815 2.94131187890625 5.324840083007816 2.93317437890625 5.3085650830078155 2.93317437890625 L 5.239977583007816 2.93317437890625 C 5.223702583007816 2.93317437890625 5.212077583007815 2.94131187890625 5.212077583007815 2.95991187890625 C 5.212077583007815 2.97967437890625 5.222540083007815 3.11219937890625 5.222540083007815 3.3307493789062503 C 5.222540083007815 3.34004937890625 5.219052583007816 3.3446993789062502 5.209752583007815 3.3446993789062502 C 5.166740083007816 3.34702437890625 5.0993150830078156 3.34818687890625 5.001665083007816 3.34818687890625 C 4.904015083007816 3.34818687890625 4.836590083007816 3.34702437890625 4.793577583007815 3.3446993789062502 C 4.784277583007816 3.3446993789062502 4.780790083007815 3.34004937890625 4.780790083007815 3.3307493789062503 C 4.780790083007815 3.1133618789062503 4.7889275830078155 2.97851187890625 4.7889275830078155 2.95991187890625 C 4.7889275830078155 2.94131187890625 4.777302583007816 2.93317437890625 4.761027583007816 2.93317437890625 L 4.692440083007815 2.93317437890625 C 4.676165083007816 2.93317437890625 4.664540083007815 2.94131187890625 4.664540083007815 2.95991187890625 C 4.664540083007815 2.97967437890625 4.673840083007816 3.11219937890625 4.673840083007816 3.30866187890625 C 4.673840083007816 3.5062868789062502 4.664540083007815 3.64694937890625 4.664540083007815 3.6667118789062503 C 4.664540083007815 3.68531187890625 4.676165083007816 3.69344937890625 4.692440083007815 3.69344937890625 L 4.761027583007816 3.69344937890625 C 4.777302583007816 3.69344937890625 4.7889275830078155 3.68531187890625 4.7889275830078155 3.6667118789062503 C 4.7889275830078155 3.64694937890625 4.786602583007816 3.50744937890625 4.786602583007816 3.4574618789062503 M 6.467379708251956 3.31214937890625 C 6.467379708251956 3.5399993789062503 6.648729708251956 3.70391187890625 6.864954708251956 3.70391187890625 C 7.081179708251956 3.70391187890625 7.262529708251956 3.5399993789062503 7.262529708251956 3.31214937890625 C 7.262529708251956 3.08429937890625 7.081179708251956 2.92038687890625 6.864954708251956 2.92038687890625 C 6.648729708251956 2.92038687890625 6.467379708251956 3.08429937890625 6.467379708251956 3.31214937890625 M 6.580142208251956 3.31214937890625 C 6.580142208251956 3.13777437890625 6.702204708251956 3.02617437890625 6.864954708251956 3.02617437890625 C 7.027704708251956 3.02617437890625 7.148604708251956 3.13777437890625 7.148604708251956 3.31214937890625 C 7.148604708251956 3.48652437890625 7.027704708251956 3.59928687890625 6.864954708251956 3.59928687890625 C 6.702204708251956 3.59928687890625 6.580142208251956 3.48652437890625 6.580142208251956 3.31214937890625 M 8.131370855712893 3.36446187890625 C 8.231345855712894 3.30052437890625 8.311558355712894 3.23542437890625 8.311558355712894 3.13196187890625 C 8.311558355712894 2.9866493789062503 8.212745855712893 2.93317437890625 8.048833355712894 2.93317437890625 L 7.761695855712893 2.93317437890625 C 7.745420855712894 2.93317437890625 7.733795855712893 2.94131187890625 7.733795855712893 2.95991187890625 C 7.733795855712893 3.01687437890625 7.743095855712894 3.11568687890625 7.743095855712894 3.32609937890625 C 7.743095855712894 3.52372437890625 7.733795855712893 3.64694937890625 7.733795855712893 3.6667118789062503 C 7.733795855712893 3.68531187890625 7.745420855712894 3.69344937890625 7.761695855712893 3.69344937890625 L 7.8302833557128935 3.69344937890625 C 7.846558355712894 3.69344937890625 7.858183355712893 3.68531187890625 7.858183355712893 3.6667118789062503 C 7.858183355712893 3.64694937890625 7.8535333557128935 3.5609243789062504 7.8535333557128935 3.48768687890625 C 7.8535333557128935 3.47373687890625 7.861670855712894 3.46792437890625 7.8744583557128935 3.46211187890625 C 7.891895855712893 3.45397437890625 8.000008355712893 3.41909937890625 8.005820855712894 3.41909937890625 C 8.011633355712894 3.41909937890625 8.019770855712894 3.42607437890625 8.027908355712894 3.4365368789062503 C 8.119745855712893 3.54464937890625 8.136020855712893 3.58882437890625 8.187170855712893 3.65741187890625 C 8.206933355712893 3.68414937890625 8.211583355712893 3.69344937890625 8.235995855712893 3.69344937890625 L 8.348758355712894 3.69344937890625 C 8.362708355712893 3.69344937890625 8.367358355712893 3.68414937890625 8.367358355712893 3.67484937890625 C 8.367358355712893 3.65973687890625 8.346433355712893 3.64578687890625 8.337133355712893 3.63648687890625 C 8.237158355712893 3.5388368789062503 8.202283355712893 3.48652437890625 8.130208355712893 3.3900368789062503 C 8.125558355712894 3.38422437890625 8.122070855712893 3.3795743789062502 8.122070855712893 3.37492437890625 C 8.122070855712893 3.37027437890625 8.125558355712894 3.3679493789062502 8.131370855712893 3.36446187890625 M 7.8535333557128935 3.35051187890625 L 7.8535333557128935 3.04593687890625 C 7.8535333557128935 3.03198687890625 7.860508355712893 3.02501187890625 7.8744583557128935 3.02501187890625 L 8.068595855712893 3.02501187890625 C 8.145320855712894 3.02501187890625 8.196470855712894 3.07151187890625 8.196470855712894 3.12731187890625 C 8.196470855712894 3.18892437890625 8.132533355712894 3.24704937890625 8.059295855712893 3.28889937890625 C 7.986058355712894 3.3307493789062503 7.870970855712893 3.36213687890625 7.870970855712893 3.36213687890625 C 7.861670855712894 3.36446187890625 7.8535333557128935 3.36329937890625 7.8535333557128935 3.35051187890625 M 9.405960831298831 3.10522437890625 C 9.418748331298831 3.12266187890625 9.42456083129883 3.12847437890625 9.435023331298831 3.12847437890625 C 9.443160831298831 3.12847437890625 9.44897333129883 3.12033687890625 9.452460831298831 3.10871187890625 C 9.459435831298832 3.08081187890625 9.460598331298831 3.03198687890625 9.460598331298831 3.00524937890625 C 9.460598331298831 2.99013687890625 9.44432333129883 2.97618687890625 9.417585831298831 2.96223687890625 C 9.375735831298831 2.9401493789062503 9.30598583129883 2.92038687890625 9.228098331298831 2.92038687890625 C 8.940960831298831 2.92038687890625 8.76542333129883 3.12149937890625 8.76542333129883 3.33772437890625 C 8.76542333129883 3.57254937890625 8.966535831298831 3.70507437890625 9.186248331298831 3.70507437890625 C 9.34783583129883 3.70507437890625 9.41526083129883 3.66089937890625 9.488498331298832 3.60626187890625 C 9.505935831298832 3.59347437890625 9.51291083129883 3.5748743789062503 9.51291083129883 3.54581187890625 L 9.51291083129883 3.3330743789062502 C 9.51291083129883 3.31331187890625 9.502448331298831 3.29936187890625 9.480360831298832 3.29936187890625 L 9.32691083129883 3.29936187890625 C 9.312960831298831 3.29936187890625 9.308310831298831 3.30517437890625 9.308310831298831 3.31563687890625 C 9.308310831298831 3.3446993789062502 9.321098331298831 3.39933687890625 9.342023331298831 3.39933687890625 C 9.359460831298831 3.39933687890625 9.37457333129883 3.39701187890625 9.400148331298832 3.39701187890625 C 9.40828583129883 3.39701187890625 9.412935831298832 3.4004993789062503 9.412935831298832 3.40863687890625 L 9.412935831298832 3.5179118789062502 C 9.412935831298832 3.53069937890625 9.404798331298831 3.54464937890625 9.39898583129883 3.5504618789062503 C 9.393173331298831 3.55627437890625 9.312960831298831 3.61207437890625 9.19671083129883 3.61207437890625 C 9.007223331298832 3.61207437890625 8.89097333129883 3.5039618789062503 8.89097333129883 3.34004937890625 C 8.89097333129883 3.14939937890625 9.021173331298831 3.01803687890625 9.23391083129883 3.01803687890625 C 9.31761083129883 3.01803687890625 9.379223331298832 3.06918687890625 9.405960831298831 3.10522437890625 M 10.363138923339847 2.94944937890625 C 10.350351423339847 2.92271187890625 10.341051423339847 2.92038687890625 10.315476423339847 2.92038687890625 C 10.289901423339847 2.92038687890625 10.280601423339847 2.92271187890625 10.268976423339847 2.94944937890625 C 10.251538923339847 2.98897437890625 10.106226423339846 3.31331187890625 10.015551423339847 3.50977437890625 C 9.985326423339847 3.57603687890625 9.952776423339847 3.6306743789062503 9.936501423339847 3.66206187890625 C 9.935338923339847 3.6655493789062503 9.930688923339847 3.67484937890625 9.930688923339847 3.68066187890625 C 9.930688923339847 3.6887993789062503 9.935338923339847 3.69344937890625 9.945801423339846 3.69344937890625 L 10.050426423339847 3.69344937890625 C 10.058563923339847 3.69344937890625 10.066701423339847 3.68763687890625 10.070188923339847 3.67252437890625 C 10.078326423339847 3.63997437890625 10.093438923339846 3.59928687890625 10.109713923339847 3.5632493789062503 C 10.115526423339848 3.5504618789062503 10.125988923339847 3.54464937890625 10.134126423339847 3.54464937890625 L 10.496826423339847 3.54464937890625 C 10.504963923339847 3.54464937890625 10.515426423339846 3.5504618789062503 10.521238923339848 3.5632493789062503 C 10.537513923339848 3.59928687890625 10.552626423339847 3.63997437890625 10.560763923339847 3.67252437890625 C 10.564251423339847 3.68763687890625 10.572388923339847 3.69344937890625 10.580526423339847 3.69344937890625 L 10.685151423339846 3.69344937890625 C 10.695613923339847 3.69344937890625 10.700263923339847 3.6887993789062503 10.700263923339847 3.68066187890625 C 10.700263923339847 3.67484937890625 10.695613923339847 3.6655493789062503 10.694451423339848 3.66206187890625 C 10.678176423339847 3.6306743789062503 10.645626423339847 3.57603687890625 10.615401423339847 3.50977437890625 C 10.524726423339848 3.31331187890625 10.380576423339846 2.98897437890625 10.363138923339847 2.94944937890625 M 10.177138923339847 3.44002437890625 C 10.169001423339846 3.44002437890625 10.164351423339847 3.43537437890625 10.164351423339847 3.43072437890625 C 10.164351423339847 3.41561187890625 10.259676423339847 3.21449937890625 10.301526423339848 3.11684937890625 C 10.307338923339847 3.10406187890625 10.309663923339848 3.09824937890625 10.315476423339847 3.09824937890625 C 10.321288923339846 3.09824937890625 10.323613923339847 3.10406187890625 10.329426423339847 3.11684937890625 C 10.371276423339847 3.21449937890625 10.466601423339847 3.41561187890625 10.466601423339847 3.43072437890625 C 10.466601423339847 3.43537437890625 10.461951423339848 3.44002437890625 10.453813923339847 3.44002437890625 M 11.749269298095706 3.30866187890625 L 11.749269298095706 3.49582437890625 C 11.749269298095706 3.50163687890625 11.746944298095706 3.5051243789062503 11.743456798095705 3.5051243789062503 C 11.739969298095707 3.5051243789062503 11.737644298095706 3.50279937890625 11.731831798095707 3.49582437890625 C 11.605119298095707 3.3307493789062503 11.393544298095707 3.06337437890625 11.317981798095706 2.96107437890625 C 11.302869298095706 2.9401493789062503 11.284269298095706 2.93317437890625 11.264506798095706 2.93317437890625 L 11.195919298095706 2.93317437890625 C 11.179644298095706 2.93317437890625 11.168019298095706 2.94131187890625 11.168019298095706 2.95991187890625 C 11.168019298095706 2.97967437890625 11.177319298095705 3.11103687890625 11.177319298095705 3.30866187890625 C 11.177319298095705 3.5062868789062502 11.168019298095706 3.64694937890625 11.168019298095706 3.6667118789062503 C 11.168019298095706 3.68531187890625 11.179644298095706 3.69344937890625 11.195919298095706 3.69344937890625 L 11.264506798095706 3.69344937890625 C 11.280781798095706 3.69344937890625 11.292406798095707 3.68531187890625 11.292406798095707 3.6667118789062503 C 11.292406798095707 3.64694937890625 11.280781798095706 3.5051243789062503 11.280781798095706 3.30866187890625 C 11.280781798095706 3.23542437890625 11.284269298095706 3.12149937890625 11.284269298095706 3.12149937890625 C 11.284269298095706 3.11568687890625 11.284269298095706 3.10987437890625 11.291244298095705 3.10987437890625 C 11.298219298095706 3.10987437890625 11.302869298095706 3.11684937890625 11.308681798095705 3.12498687890625 C 11.385406798095707 3.22263687890625 11.695794298095706 3.61672437890625 11.756244298095705 3.6887993789062503 C 11.766706798095706 3.7004243789062503 11.776006798095706 3.70623687890625 11.788794298095706 3.70623687890625 C 11.851569298095706 3.70623687890625 11.850406798095706 3.68298687890625 11.850406798095706 3.65857437890625 C 11.850406798095706 3.63881187890625 11.852731798095705 3.5051243789062503 11.852731798095705 3.30866187890625 C 11.852731798095705 3.06453687890625 11.862031798095707 2.97967437890625 11.862031798095707 2.95991187890625 C 11.862031798095707 2.94131187890625 11.850406798095706 2.93317437890625 11.834131798095706 2.93317437890625 L 11.765544298095707 2.93317437890625 C 11.749269298095706 2.93317437890625 11.737644298095706 2.94131187890625 11.737644298095706 2.95991187890625 C 11.737644298095706 2.97967437890625 11.749269298095706 3.06337437890625 11.749269298095706 3.30866187890625 M 12.512321810302739 3.30866187890625 C 12.512321810302739 3.11219937890625 12.521621810302738 2.97967437890625 12.521621810302738 2.95991187890625 C 12.521621810302738 2.94131187890625 12.509996810302738 2.93317437890625 12.493721810302738 2.93317437890625 L 12.425134310302738 2.93317437890625 C 12.408859310302738 2.93317437890625 12.39723431030274 2.94131187890625 12.39723431030274 2.95991187890625 C 12.39723431030274 2.97967437890625 12.406534310302739 3.11103687890625 12.406534310302739 3.30866187890625 C 12.406534310302739 3.5062868789062502 12.39723431030274 3.64694937890625 12.39723431030274 3.6667118789062503 C 12.39723431030274 3.68531187890625 12.408859310302738 3.69344937890625 12.425134310302738 3.69344937890625 L 12.493721810302738 3.69344937890625 C 12.509996810302738 3.69344937890625 12.521621810302738 3.68531187890625 12.521621810302738 3.6667118789062503 C 12.521621810302738 3.64694937890625 12.512321810302739 3.5051243789062503 12.512321810302739 3.30866187890625 M 13.450945312500004 2.92038687890625 C 13.175432812500004 2.92038687890625 13.011520312500004 3.12149937890625 13.011520312500004 3.33772437890625 C 13.011520312500004 3.57254937890625 13.201007812500004 3.70507437890625 13.420720312500004 3.70507437890625 C 13.582307812500003 3.70507437890625 13.660195312500004 3.65741187890625 13.705532812500005 3.62369937890625 C 13.728782812500004 3.60626187890625 13.733432812500004 3.59928687890625 13.733432812500004 3.58882437890625 C 13.733432812500004 3.57022437890625 13.700882812500005 3.5062868789062502 13.685770312500004 3.5062868789062502 C 13.677632812500004 3.5062868789062502 13.674145312500004 3.50977437890625 13.653220312500004 3.5283743789062503 C 13.612532812500005 3.56441187890625 13.559057812500004 3.6085868789062503 13.442807812500003 3.6085868789062503 C 13.253320312500005 3.6085868789062503 13.137070312500004 3.51209937890625 13.137070312500004 3.34004937890625 C 13.137070312500004 3.14939937890625 13.255645312500004 3.01803687890625 13.456757812500005 3.01803687890625 C 13.540457812500005 3.01803687890625 13.602070312500004 3.06918687890625 13.628807812500003 3.10522437890625 C 13.641595312500005 3.12266187890625 13.647407812500004 3.12847437890625 13.657870312500004 3.12847437890625 C 13.666007812500004 3.12847437890625 13.671820312500005 3.12033687890625 13.675307812500003 3.10871187890625 C 13.682282812500004 3.08081187890625 13.683445312500004 3.03198687890625 13.683445312500004 3.00524937890625 C 13.683445312500004 2.99013687890625 13.667170312500005 2.97618687890625 13.640432812500004 2.96223687890625 C 13.598582812500004 2.9401493789062503 13.528832812500005 2.92038687890625 13.450945312500004 2.92038687890625 M 15.2688980053711 2.94944937890625 C 15.2561105053711 2.92271187890625 15.2468105053711 2.92038687890625 15.2212355053711 2.92038687890625 C 15.1956605053711 2.92038687890625 15.1863605053711 2.92271187890625 15.1747355053711 2.94944937890625 C 15.1572980053711 2.98897437890625 15.011985505371099 3.31331187890625 14.9213105053711 3.50977437890625 C 14.8910855053711 3.57603687890625 14.8585355053711 3.6306743789062503 14.8422605053711 3.66206187890625 C 14.8410980053711 3.6655493789062503 14.8364480053711 3.67484937890625 14.8364480053711 3.68066187890625 C 14.8364480053711 3.6887993789062503 14.8410980053711 3.69344937890625 14.851560505371099 3.69344937890625 L 14.9561855053711 3.69344937890625 C 14.9643230053711 3.69344937890625 14.9724605053711 3.68763687890625 14.9759480053711 3.67252437890625 C 14.9840855053711 3.63997437890625 14.999198005371099 3.59928687890625 15.0154730053711 3.5632493789062503 C 15.0212855053711 3.5504618789062503 15.0317480053711 3.54464937890625 15.0398855053711 3.54464937890625 L 15.4025855053711 3.54464937890625 C 15.4107230053711 3.54464937890625 15.421185505371099 3.5504618789062503 15.4269980053711 3.5632493789062503 C 15.4432730053711 3.59928687890625 15.4583855053711 3.63997437890625 15.4665230053711 3.67252437890625 C 15.4700105053711 3.68763687890625 15.4781480053711 3.69344937890625 15.4862855053711 3.69344937890625 L 15.590910505371099 3.69344937890625 C 15.6013730053711 3.69344937890625 15.6060230053711 3.6887993789062503 15.6060230053711 3.68066187890625 C 15.6060230053711 3.67484937890625 15.6013730053711 3.6655493789062503 15.6002105053711 3.66206187890625 C 15.5839355053711 3.6306743789062503 15.5513855053711 3.57603687890625 15.5211605053711 3.50977437890625 C 15.4304855053711 3.31331187890625 15.286335505371099 2.98897437890625 15.2688980053711 2.94944937890625 M 15.0828980053711 3.44002437890625 C 15.0747605053711 3.44002437890625 15.0701105053711 3.43537437890625 15.0701105053711 3.43072437890625 C 15.0701105053711 3.41561187890625 15.1654355053711 3.21449937890625 15.2072855053711 3.11684937890625 C 15.2130980053711 3.10406187890625 15.2154230053711 3.09824937890625 15.2212355053711 3.09824937890625 C 15.227048005371099 3.09824937890625 15.2293730053711 3.10406187890625 15.2351855053711 3.11684937890625 C 15.2770355053711 3.21449937890625 15.3723605053711 3.41561187890625 15.3723605053711 3.43072437890625 C 15.3723605053711 3.43537437890625 15.3677105053711 3.44002437890625 15.3595730053711 3.44002437890625 M 16.343464757080085 3.70507437890625 C 16.545739757080085 3.70507437890625 16.670127257080086 3.5748743789062503 16.670127257080086 3.39236187890625 C 16.670127257080086 3.09941187890625 16.678264757080086 2.97967437890625 16.678264757080086 2.95991187890625 C 16.678264757080086 2.94131187890625 16.666639757080084 2.93317437890625 16.650364757080084 2.93317437890625 L 16.581777257080084 2.93317437890625 C 16.565502257080084 2.93317437890625 16.553877257080085 2.94131187890625 16.553877257080085 2.95991187890625 C 16.553877257080085 2.97967437890625 16.562014757080085 3.14591187890625 16.562014757080085 3.34237437890625 C 16.562014757080085 3.5388368789062503 16.478314757080085 3.6097493789062503 16.343464757080085 3.6097493789062503 C 16.208614757080085 3.6097493789062503 16.124914757080084 3.5388368789062503 16.124914757080084 3.34237437890625 C 16.124914757080084 3.14591187890625 16.133052257080085 2.97967437890625 16.133052257080085 2.95991187890625 C 16.133052257080085 2.94131187890625 16.121427257080086 2.93317437890625 16.105152257080086 2.93317437890625 L 16.036564757080086 2.93317437890625 C 16.020289757080086 2.93317437890625 16.008664757080084 2.94131187890625 16.008664757080084 2.95991187890625 C 16.008664757080084 2.97967437890625 16.016802257080084 3.09941187890625 16.016802257080084 3.39236187890625 C 16.016802257080084 3.5748743789062503 16.141189757080085 3.70507437890625 16.343464757080085 3.70507437890625 M 17.52155077148438 3.30866187890625 C 17.52155077148438 3.19008687890625 17.52155077148438 3.1005743789062503 17.52736327148438 3.03896187890625 C 17.528525771484382 3.02617437890625 17.53898827148438 3.01919937890625 17.552938271484383 3.01919937890625 L 17.645938271484383 3.01919937890625 C 17.72498827148438 3.01919937890625 17.76102577148438 3.05523687890625 17.77962577148438 3.05523687890625 C 17.78776327148438 3.05523687890625 17.79241327148438 3.04826187890625 17.79241327148438 3.03896187890625 C 17.79241327148438 3.01919937890625 17.77962577148438 2.99362437890625 17.77032577148438 2.94944937890625 C 17.76800077148438 2.93898687890625 17.764513271484383 2.93317437890625 17.75288827148438 2.93317437890625 L 17.183263271484382 2.93317437890625 C 17.17163827148438 2.93317437890625 17.16815077148438 2.93898687890625 17.165825771484382 2.94944937890625 C 17.156525771484382 2.99362437890625 17.14373827148438 3.01919937890625 17.14373827148438 3.03896187890625 C 17.14373827148438 3.04826187890625 17.148388271484382 3.05523687890625 17.156525771484382 3.05523687890625 C 17.17512577148438 3.05523687890625 17.21116327148438 3.01919937890625 17.29021327148438 3.01919937890625 L 17.38088827148438 3.01919937890625 C 17.39832577148438 3.01919937890625 17.40878827148438 3.02617437890625 17.409950771484382 3.03896187890625 C 17.41576327148438 3.1005743789062503 17.41576327148438 3.19008687890625 17.41576327148438 3.30866187890625 C 17.41576327148438 3.5062868789062502 17.40646327148438 3.64694937890625 17.40646327148438 3.6667118789062503 C 17.40646327148438 3.68531187890625 17.418088271484383 3.69344937890625 17.43436327148438 3.69344937890625 L 17.502950771484382 3.69344937890625 C 17.519225771484383 3.69344937890625 17.53085077148438 3.68531187890625 17.53085077148438 3.6667118789062503 C 17.53085077148438 3.64694937890625 17.52155077148438 3.5051243789062503 17.52155077148438 3.30866187890625 M 18.382231713867196 3.4574618789062503 C 18.382231713867196 3.4481618789062503 18.385719213867194 3.44351187890625 18.395019213867194 3.44351187890625 C 18.438031713867193 3.44118687890625 18.499644213867196 3.44002437890625 18.597294213867194 3.44002437890625 C 18.694944213867196 3.44002437890625 18.756556713867194 3.44118687890625 18.799569213867194 3.44351187890625 C 18.808869213867194 3.44351187890625 18.812356713867196 3.4481618789062503 18.812356713867196 3.4574618789062503 C 18.812356713867196 3.5062868789062502 18.807706713867194 3.64694937890625 18.807706713867194 3.6667118789062503 C 18.807706713867194 3.68531187890625 18.819331713867193 3.69344937890625 18.835606713867193 3.69344937890625 L 18.904194213867196 3.69344937890625 C 18.920469213867193 3.69344937890625 18.932094213867195 3.68531187890625 18.932094213867195 3.6667118789062503 C 18.932094213867195 3.64694937890625 18.922794213867196 3.5062868789062502 18.922794213867196 3.30866187890625 C 18.922794213867196 3.11219937890625 18.932094213867195 2.97967437890625 18.932094213867195 2.95991187890625 C 18.932094213867195 2.94131187890625 18.920469213867193 2.93317437890625 18.904194213867196 2.93317437890625 L 18.835606713867193 2.93317437890625 C 18.819331713867193 2.93317437890625 18.807706713867194 2.94131187890625 18.807706713867194 2.95991187890625 C 18.807706713867194 2.97967437890625 18.818169213867193 3.11219937890625 18.818169213867193 3.3307493789062503 C 18.818169213867193 3.34004937890625 18.814681713867195 3.3446993789062502 18.805381713867195 3.3446993789062502 C 18.762369213867196 3.34702437890625 18.694944213867196 3.34818687890625 18.597294213867194 3.34818687890625 C 18.499644213867196 3.34818687890625 18.432219213867196 3.34702437890625 18.389206713867196 3.3446993789062502 C 18.379906713867193 3.3446993789062502 18.376419213867194 3.34004937890625 18.376419213867194 3.3307493789062503 C 18.376419213867194 3.1133618789062503 18.384556713867195 2.97851187890625 18.384556713867195 2.95991187890625 C 18.384556713867195 2.94131187890625 18.372931713867196 2.93317437890625 18.356656713867196 2.93317437890625 L 18.288069213867196 2.93317437890625 C 18.271794213867196 2.93317437890625 18.260169213867194 2.94131187890625 18.260169213867194 2.95991187890625 C 18.260169213867194 2.97967437890625 18.269469213867193 3.11219937890625 18.269469213867193 3.30866187890625 C 18.269469213867193 3.5062868789062502 18.260169213867194 3.64694937890625 18.260169213867194 3.6667118789062503 C 18.260169213867194 3.68531187890625 18.271794213867196 3.69344937890625 18.288069213867196 3.69344937890625 L 18.356656713867196 3.69344937890625 C 18.372931713867196 3.69344937890625 18.384556713867195 3.68531187890625 18.384556713867195 3.6667118789062503 C 18.384556713867195 3.64694937890625 18.382231713867196 3.50744937890625 18.382231713867196 3.4574618789062503 M 19.57312679809571 3.30517437890625 C 19.56382679809571 3.30517437890625 19.55801429809571 3.30052437890625 19.55801429809571 3.29006187890625 C 19.55801429809571 3.2040368789062503 19.56150179809571 3.09592437890625 19.56150179809571 3.04593687890625 C 19.56150179809571 3.03198687890625 19.56847679809571 3.02501187890625 19.58242679809571 3.02501187890625 L 19.80330179809571 3.02501187890625 C 19.88235179809571 3.02501187890625 19.92768929809571 3.05523687890625 19.94861429809571 3.05523687890625 C 19.96023929809571 3.05523687890625 19.97418929809571 3.02384937890625 19.98232679809571 2.99943687890625 C 19.99046429809571 2.97502437890625 19.99743929809571 2.95642437890625 19.99743929809571 2.94363687890625 C 19.99743929809571 2.93782437890625 19.99162679809571 2.93317437890625 19.98000179809571 2.93317437890625 L 19.46966429809571 2.93317437890625 C 19.45338929809571 2.93317437890625 19.44176429809571 2.94131187890625 19.44176429809571 2.95991187890625 C 19.44176429809571 3.01687437890625 19.45106429809571 3.11568687890625 19.45106429809571 3.32609937890625 C 19.45106429809571 3.52372437890625 19.44176429809571 3.62369937890625 19.44176429809571 3.6667118789062503 C 19.44176429809571 3.68531187890625 19.45338929809571 3.69344937890625 19.46966429809571 3.69344937890625 L 19.967214298095712 3.69344937890625 C 19.98116429809571 3.69344937890625 19.99046429809571 3.6911243789062502 19.99395179809571 3.67484937890625 C 20.000926798095712 3.6422993789062503 20.01836429809571 3.5864993789062503 20.01836429809571 3.57022437890625 C 20.01836429809571 3.55859937890625 20.01255179809571 3.55511187890625 20.00441429809571 3.55511187890625 C 19.98348929809571 3.55511187890625 19.93466429809571 3.60161187890625 19.79167679809571 3.60161187890625 L 19.57893929809571 3.60161187890625 C 19.56847679809571 3.60161187890625 19.56150179809571 3.59579937890625 19.56150179809571 3.58301187890625 C 19.56150179809571 3.5609243789062504 19.55801429809571 3.48768687890625 19.55801429809571 3.41212437890625 C 19.55801429809571 3.4016618789062503 19.56382679809571 3.39701187890625 19.57312679809571 3.39701187890625 L 19.73355179809571 3.39701187890625 C 19.78935179809571 3.39701187890625 19.82538929809571 3.41561187890625 19.84631429809571 3.41561187890625 C 19.85793929809571 3.41561187890625 19.86956429809571 3.39584937890625 19.87770179809571 3.37143687890625 C 19.88583929809571 3.34702437890625 19.89281429809571 3.32842437890625 19.89281429809571 3.31563687890625 C 19.89281429809571 3.30517437890625 19.88583929809571 3.30517437890625 19.87421429809571 3.30517437890625 M 21.07787020385743 3.30866187890625 L 21.07787020385743 3.49582437890625 C 21.07787020385743 3.50163687890625 21.07554520385743 3.5051243789062503 21.072057703857432 3.5051243789062503 C 21.06857020385743 3.5051243789062503 21.06624520385743 3.50279937890625 21.06043270385743 3.49582437890625 C 20.93372020385743 3.3307493789062503 20.72214520385743 3.06337437890625 20.64658270385743 2.96107437890625 C 20.631470203857432 2.9401493789062503 20.61287020385743 2.93317437890625 20.59310770385743 2.93317437890625 L 20.52452020385743 2.93317437890625 C 20.50824520385743 2.93317437890625 20.496620203857432 2.94131187890625 20.496620203857432 2.95991187890625 C 20.496620203857432 2.97967437890625 20.505920203857432 3.11103687890625 20.505920203857432 3.30866187890625 C 20.505920203857432 3.5062868789062502 20.496620203857432 3.64694937890625 20.496620203857432 3.6667118789062503 C 20.496620203857432 3.68531187890625 20.50824520385743 3.69344937890625 20.52452020385743 3.69344937890625 L 20.59310770385743 3.69344937890625 C 20.60938270385743 3.69344937890625 20.62100770385743 3.68531187890625 20.62100770385743 3.6667118789062503 C 20.62100770385743 3.64694937890625 20.60938270385743 3.5051243789062503 20.60938270385743 3.30866187890625 C 20.60938270385743 3.23542437890625 20.61287020385743 3.12149937890625 20.61287020385743 3.12149937890625 C 20.61287020385743 3.11568687890625 20.61287020385743 3.10987437890625 20.61984520385743 3.10987437890625 C 20.62682020385743 3.10987437890625 20.631470203857432 3.11684937890625 20.63728270385743 3.12498687890625 C 20.71400770385743 3.22263687890625 21.02439520385743 3.61672437890625 21.08484520385743 3.6887993789062503 C 21.09530770385743 3.7004243789062503 21.104607703857432 3.70623687890625 21.11739520385743 3.70623687890625 C 21.18017020385743 3.70623687890625 21.17900770385743 3.68298687890625 21.17900770385743 3.65857437890625 C 21.17900770385743 3.63881187890625 21.181332703857432 3.5051243789062503 21.181332703857432 3.30866187890625 C 21.181332703857432 3.06453687890625 21.190632703857432 2.97967437890625 21.190632703857432 2.95991187890625 C 21.190632703857432 2.94131187890625 21.17900770385743 2.93317437890625 21.16273270385743 2.93317437890625 L 21.09414520385743 2.93317437890625 C 21.07787020385743 2.93317437890625 21.06624520385743 2.94131187890625 21.06624520385743 2.95991187890625 C 21.06624520385743 2.97967437890625 21.07787020385743 3.06337437890625 21.07787020385743 3.30866187890625 M 22.038547716064464 3.30866187890625 C 22.038547716064464 3.19008687890625 22.038547716064464 3.1005743789062503 22.04436021606446 3.03896187890625 C 22.045522716064465 3.02617437890625 22.055985216064464 3.01919937890625 22.069935216064465 3.01919937890625 L 22.162935216064465 3.01919937890625 C 22.241985216064464 3.01919937890625 22.278022716064463 3.05523687890625 22.296622716064462 3.05523687890625 C 22.304760216064462 3.05523687890625 22.309410216064464 3.04826187890625 22.309410216064464 3.03896187890625 C 22.309410216064464 3.01919937890625 22.296622716064462 2.99362437890625 22.287322716064462 2.94944937890625 C 22.284997716064463 2.93898687890625 22.281510216064465 2.93317437890625 22.269885216064463 2.93317437890625 L 21.700260216064464 2.93317437890625 C 21.688635216064462 2.93317437890625 21.685147716064463 2.93898687890625 21.682822716064464 2.94944937890625 C 21.673522716064465 2.99362437890625 21.660735216064463 3.01919937890625 21.660735216064463 3.03896187890625 C 21.660735216064463 3.04826187890625 21.665385216064465 3.05523687890625 21.673522716064465 3.05523687890625 C 21.692122716064464 3.05523687890625 21.728160216064463 3.01919937890625 21.807210216064462 3.01919937890625 L 21.897885216064463 3.01919937890625 C 21.915322716064463 3.01919937890625 21.92578521606446 3.02617437890625 21.926947716064465 3.03896187890625 C 21.932760216064462 3.1005743789062503 21.932760216064462 3.19008687890625 21.932760216064462 3.30866187890625 C 21.932760216064462 3.5062868789062502 21.923460216064463 3.64694937890625 21.923460216064463 3.6667118789062503 C 21.923460216064463 3.68531187890625 21.935085216064465 3.69344937890625 21.95136021606446 3.69344937890625 L 22.019947716064465 3.69344937890625 C 22.036222716064465 3.69344937890625 22.047847716064464 3.68531187890625 22.047847716064464 3.6667118789062503 C 22.047847716064464 3.64694937890625 22.038547716064464 3.5051243789062503 22.038547716064464 3.30866187890625 M 22.913178658447276 3.30866187890625 C 22.913178658447276 3.11219937890625 22.922478658447275 2.97967437890625 22.922478658447275 2.95991187890625 C 22.922478658447275 2.94131187890625 22.910853658447277 2.93317437890625 22.894578658447276 2.93317437890625 L 22.825991158447277 2.93317437890625 C 22.809716158447277 2.93317437890625 22.798091158447278 2.94131187890625 22.798091158447278 2.95991187890625 C 22.798091158447278 2.97967437890625 22.807391158447277 3.11103687890625 22.807391158447277 3.30866187890625 C 22.807391158447277 3.5062868789062502 22.798091158447278 3.64694937890625 22.798091158447278 3.6667118789062503 C 22.798091158447278 3.68531187890625 22.809716158447277 3.69344937890625 22.825991158447277 3.69344937890625 L 22.894578658447276 3.69344937890625 C 22.910853658447277 3.69344937890625 22.922478658447275 3.68531187890625 22.922478658447275 3.6667118789062503 C 22.922478658447275 3.64694937890625 22.913178658447276 3.5051243789062503 22.913178658447276 3.30866187890625 M 23.851802160644542 2.92038687890625 C 23.57628966064454 2.92038687890625 23.412377160644542 3.12149937890625 23.412377160644542 3.33772437890625 C 23.412377160644542 3.57254937890625 23.60186466064454 3.70507437890625 23.82157716064454 3.70507437890625 C 23.98316466064454 3.70507437890625 24.06105216064454 3.65741187890625 24.106389660644542 3.62369937890625 C 24.129639660644543 3.60626187890625 24.13428966064454 3.59928687890625 24.13428966064454 3.58882437890625 C 24.13428966064454 3.57022437890625 24.10173966064454 3.5062868789062502 24.08662716064454 3.5062868789062502 C 24.078489660644543 3.5062868789062502 24.07500216064454 3.50977437890625 24.054077160644542 3.5283743789062503 C 24.013389660644542 3.56441187890625 23.95991466064454 3.6085868789062503 23.843664660644542 3.6085868789062503 C 23.65417716064454 3.6085868789062503 23.537927160644543 3.51209937890625 23.537927160644543 3.34004937890625 C 23.537927160644543 3.14939937890625 23.656502160644543 3.01803687890625 23.85761466064454 3.01803687890625 C 23.94131466064454 3.01803687890625 24.002927160644543 3.06918687890625 24.029664660644542 3.10522437890625 C 24.04245216064454 3.12266187890625 24.04826466064454 3.12847437890625 24.05872716064454 3.12847437890625 C 24.06686466064454 3.12847437890625 24.07267716064454 3.12033687890625 24.07616466064454 3.10871187890625 C 24.08313966064454 3.08081187890625 24.08430216064454 3.03198687890625 24.08430216064454 3.00524937890625 C 24.08430216064454 2.99013687890625 24.06802716064454 2.97618687890625 24.04128966064454 2.96223687890625 C 23.99943966064454 2.9401493789062503 23.92968966064454 2.92038687890625 23.851802160644542 2.92038687890625" fill="url(#gradient-ac753dd4-b611-4d5a-9e5f-6d28a9757413)" fill-rule="nonzero"></path>
		</g>
		<g clip-path="url(&quot;#SvgjsClipPath1001&quot;)">
			<g clip-path="url(&quot;#a&quot;)">
				<path d=" M 24.59068318502546 2.5331858194548476 C 24.669048190364087 2.715469636220784 24.927007138143527 2.798048778002107 25.116732940542306 3.029915944827838 C 25.318383852449138 3.276667082919259 25.35012436948561 3.624198845725344 25.331026261777225 3.927616669599388 C 25.296237220505613 3.7416566912557805 25.203974531153843 3.4949952156418647 25.011110542042417 3.3539561385278365 C 25.1123394791446 3.516872860152877 25.10920129243196 3.676113420200247 25.199043094891117 3.8636873231389286 C 25.076653813097952 3.7630860233792722 24.900467044802298 3.649662989336523 24.819860477526067 3.5632283610225226 C 24.7039268941132 3.4390458296792747 24.63676969846259 3.302579538917959 24.604491206561097 3.1217303217920875 C 24.56970216528949 2.926804095698066 24.580640987544992 2.7285603579363906 24.59068318502546 2.5331858194548476" fill="url(#gradient-b60030da-92ce-4c44-af0c-1ab5c79f1506_0)" transform="matrix(1,0,0,1,0,0)" fill-rule="nonzero"></path>
			</g>
			<g clip-path="url(&quot;#a&quot;)">
				<path d=" M 26.205773392307712 2.5224263221543497 C 26.127408386969083 2.7046204764427824 25.869449439189644 2.787199618224104 25.679813299268368 3.0191564475273402 C 25.47807272488403 3.265728260663753 25.446421870325064 3.613439348424846 25.465430315555945 3.916767509821385 C 25.500219356827557 3.7308971939552826 25.59257170865683 3.484146055863862 25.785346035290754 3.3431966412273377 C 25.68411709818857 3.5060237003748744 25.68716562242371 3.665353922899749 25.597413482442054 3.8528381633609268 C 25.63838923466145 3.819394059251879 25.685193047918617 3.784246368070252 25.732445173563303 3.749367664321138 C 25.89760345712595 3.627247369960485 26.029945273922074 3.534357043266186 26.119428426471217 3.3451692157324295 C 26.18909617149194 3.197943427670616 26.210615166092936 3.0343990687030455 26.215187952445646 2.8618884619850613 C 26.21787782677077 2.7606595248828762 26.212229090688012 2.6482227780926717 26.205773392307712 2.5224263221543497" fill="url(#gradient-b60030da-92ce-4c44-af0c-1ab5c79f1506_1)" transform="matrix(1,0,0,1,0,0)" fill-rule="nonzero"></path>
			</g>
			<g clip-path="url(&quot;#a&quot;)">
				<path d=" M 24.59068318502546 1.5567614394346545 C 24.669048190364087 1.7390452562005911 24.927007138143527 1.8215347355044094 25.116732940542306 2.0534915648076453 C 25.318383852449138 2.300153040421562 25.35012436948561 2.647774465705151 25.331026261777225 2.9511026271016902 C 25.296237220505613 2.7651426487580837 25.203974531153843 2.518570835621671 25.011110542042417 2.377442096030139 C 25.1123394791446 2.5403588176551786 25.10920129243196 2.6995993777025493 25.199043094891117 2.8872629431187358 C 25.076653813097952 2.7866616433590794 24.900467044802298 2.6732386093163294 24.819860477526067 2.586803981002329 C 24.7039268941132 2.462531787181577 24.63676969846259 2.326155158897765 24.604491206561097 2.1452162792943907 C 24.56970216528949 1.9503797156778726 24.580640987544992 1.7520463154386932 24.59068318502546 1.5567614394346545" fill="url(#gradient-b60030da-92ce-4c44-af0c-1ab5c79f1506_2)" transform="matrix(1,0,0,1,0,0)" fill-rule="nonzero"></path>
			</g>
			<g clip-path="url(&quot;#a&quot;)">
				<path d=" M 26.205773392307712 1.5460019421341564 C 26.127408386969083 1.7281960964225893 25.869449439189644 1.810685575726407 25.679813299268368 2.0427320675071474 C 25.47807272488403 2.2892142181660553 25.446421870325064 2.637014968404653 25.465430315555945 2.9403431298011924 C 25.500219356827557 2.754383151457586 25.59257170865683 2.5076320133661643 25.785346035290754 2.366682598729641 C 25.68411709818857 2.5295993203546807 25.68716562242371 2.6888398804020515 25.597413482442054 2.876413783340733 C 25.63838923466145 2.8428800167541812 25.685193047918617 2.8078219880500583 25.732445173563303 2.7728536218234403 C 25.89760345712595 2.6507333274627882 26.029945273922074 2.5579326632459924 26.119428426471217 2.3687448357122367 C 26.18909617149194 2.221429385172918 26.210615166092936 2.0578850262053487 26.215187952445646 1.8853744194873643 C 26.21787782677077 1.7842351448626828 26.212229090688012 1.671798398072479 26.205773392307712 1.5460019421341564" fill="url(#gradient-b60030da-92ce-4c44-af0c-1ab5c79f1506_3)" transform="matrix(1,0,0,1,0,0)" fill-rule="nonzero"></path>
			</g>
			<g clip-path="url(&quot;#a&quot;)">
				<path d=" M 24.59068318502546 0.5801577344594532 C 24.669048190364087 0.7623518887478858 24.927007138143527 0.8449310305292079 25.116732940542306 1.0768878598324438 C 25.318383852449138 1.323459672968856 25.35012436948561 1.6710810982524453 25.331026261777225 1.9745885846039932 C 25.296237220505613 1.7886286062603862 25.203974531153843 1.5419671306464697 25.011110542042417 1.4009280535324418 C 25.1123394791446 1.5637551126799778 25.10920129243196 1.7229956727273483 25.199043094891117 1.9105695756660304 C 25.076653813097952 1.810057938383878 24.900467044802298 1.6966349043411284 24.819860477526067 1.6102002760271277 C 24.7039268941132 1.485928082206376 24.63676969846259 1.349551453922564 24.604491206561097 1.1687022367966933 C 24.56970216528949 0.9737760107026714 24.580640987544992 0.7755322729409957 24.59068318502546 0.5801577344594532" fill="url(#gradient-b60030da-92ce-4c44-af0c-1ab5c79f1506_4)" transform="matrix(1,0,0,1,0,0)" fill-rule="nonzero"></path>
			</g>
			<g clip-path="url(&quot;#a&quot;)">
				<path d=" M 26.205773392307712 0.5693982371589552 C 26.127408386969083 0.7515923914473879 25.869449439189644 0.8340818707512059 25.679813299268368 1.066128362531946 C 25.47807272488403 1.312610513190854 25.446421870325064 1.6603216009519475 25.465430315555945 1.963739424825991 C 25.500219356827557 1.777779446482384 25.59257170865683 1.5310283083909633 25.785346035290754 1.3900788937544397 C 25.68411709818857 1.552905952901976 25.68716562242371 1.7122361754268505 25.597413482442054 1.899720415888028 C 25.63838923466145 1.8661866493014758 25.685193047918617 1.8312182830748573 25.732445173563303 1.7962499168482389 C 25.89760345712595 1.6742192849650905 26.029945273922074 1.5812392957932873 26.119428426471217 1.3921411307370353 C 26.18909617149194 1.2448256801977167 26.210615166092936 1.081281321230147 26.215187952445646 0.9087707145121626 C 26.21787782677077 0.8075417774099776 26.212229090688012 0.6951946930972775 26.205773392307712 0.5693982371589552" fill="url(#gradient-b60030da-92ce-4c44-af0c-1ab5c79f1506_5)" transform="matrix(1,0,0,1,0,0)" fill-rule="nonzero"></path>
			</g>
			<g clip-path="url(&quot;#a&quot;)">
				<path d=" M 25.40087333175296 0.49228850650538647 C 25.40087333175296 0.49228850650538647 25.415219328153622 0.8440344057541667 25.459422929563168 1.1762338849070422 C 25.623415600918257 0.8318403088136022 26.000446318823208 0.41804797513195036 25.39836278238284 -0.23415688623323636 C 24.797175870717517 0.41724101283441295 25.172413339072385 0.8307643590835525 25.33676466033749 1.1748889477444802 C 25.38105792422454 0.8409858815190254 25.40087333175296 0.49228850650538647 25.40087333175296 0.49228850650538647" fill="url(#gradient-b60030da-92ce-4c44-af0c-1ab5c79f1506_6)" transform="matrix(1,0,0,1,0,0)" fill-rule="nonzero"></path>
			</g>
		</g>
	</g>
	<defs>
		<linearGradient id="gradient-114ce791-3a2b-4a69-aa70-81b1d46052a1" x1="0" y1="0" x2="0" y2="1">
			<stop stop-color="#3e7742" offset="0"></stop>
			<stop stop-color="#f7ca4d" offset="1"></stop>
		</linearGradient>
		<linearGradient id="gradient-ac753dd4-b611-4d5a-9e5f-6d28a9757413" x1="0" y1="0" x2="1" y2="0">
			<stop stop-color="#3e7742" offset="0"></stop>
			<stop stop-color="#f7ca4d" offset="1"></stop>
		</linearGradient>
		<clipPath id="SvgjsClipPath1001">
			<path d=" M 24.580820312500002 -0.23416729069313758 h 1.6350441961374171 v 4.161783960292525 h -1.6350441961374171 Z"></path>
		</clipPath>
		<clipPath id="a">
			<path d=" M 24.580820312500002 3.927616669599388 L 26.21590525226568 3.927616669599388 L 26.21590525226568 -0.23415688623323636 L 24.580820312500002 -0.23415688623323636 Z"></path>
		</clipPath>
		<linearGradient id="gradient-b60030da-92ce-4c44-af0c-1ab5c79f1506_0" x1="0" x2="0" y1="0" y2="1">
			<stop stop-color="#b9ae49" offset="0"></stop>
			<stop stop-color="#f7ca4d" offset="1"></stop>
		</linearGradient>
		<linearGradient id="gradient-b60030da-92ce-4c44-af0c-1ab5c79f1506_1" x1="0" x2="0" y1="0" y2="1">
			<stop stop-color="#b8ad49" offset="0"></stop>
			<stop stop-color="#f6c94c" offset="1"></stop>
		</linearGradient>
		<linearGradient id="gradient-b60030da-92ce-4c44-af0c-1ab5c79f1506_2" x1="0" x2="0" y1="0" y2="1">
			<stop stop-color="#8d9a46" offset="0"></stop>
			<stop stop-color="#cbb64a" offset="1"></stop>
		</linearGradient>
		<linearGradient id="gradient-b60030da-92ce-4c44-af0c-1ab5c79f1506_3" x1="0" x2="0" y1="0" y2="1">
			<stop stop-color="#8d9a46" offset="0"></stop>
			<stop stop-color="#cbb64a" offset="1"></stop>
		</linearGradient>
		<linearGradient id="gradient-b60030da-92ce-4c44-af0c-1ab5c79f1506_4" x1="0" x2="0" y1="0" y2="1">
			<stop stop-color="#628744" offset="0"></stop>
			<stop stop-color="#a0a347" offset="1"></stop>
		</linearGradient>
		<linearGradient id="gradient-b60030da-92ce-4c44-af0c-1ab5c79f1506_5" x1="0" x2="0" y1="0" y2="1">
			<stop stop-color="#618744" offset="0"></stop>
			<stop stop-color="#9fa247" offset="1"></stop>
		</linearGradient>
		<linearGradient id="gradient-b60030da-92ce-4c44-af0c-1ab5c79f1506_6" x1="0" x2="0" y1="0" y2="1">
			<stop stop-color="#3e7742" offset="0"></stop>
			<stop stop-color="#7c9345" offset="1"></stop>
		</linearGradient>
	</defs>
</svg>