<svg xmlns="http://www.w3.org/2000/svg" version="1.1" xmlns:xlink="http://www.w3.org/1999/xlink" xmlns:svgjs="http://svgjs.dev/svgjs" viewBox="0 0 1.6868241787337934 1.6868241787337934"><g transform="matrix(1,0,0,1,0.14056868156114943,0.14056868156114943)"><rect width="1.6868241787337934" height="1.6868241787337934" x="-0.14056868156114943" y="-0.14056868156114943" fill="#000000"></rect><g><path d=" M 0.6043012125420708 0.20796856035318848 L 0.5851958796108996 0.21316723841487917 L 0.5862723735529668 0.21712339321375806 L 0.5970794305645384 0.21418272683542797 L 0.6018317574795183 0.23164770289877137 Q 0.5982510589031866 0.23562747647341808 0.5940835379188362 0.2382123882407709 Q 0.5899160169344858 0.24079730000812372 0.5841265221068581 0.24237265699651486 Q 0.5765036872504817 0.24444687703122983 0.5701805412079581 0.24368018013876336 Q 0.5638573951654345 0.2429134832462969 0.5589783456606995 0.23983657311918155 Q 0.5540992961559644 0.23675966299206622 0.5506817372733042 0.23162689655635638 Q 0.5472641783906438 0.22649413012064654 0.5454262619041875 0.21973971948841428 Q 0.5436146013675377 0.2130818004366425 0.5438768505172782 0.20699955369851517 Q 0.5441390996670186 0.20091730696038784 0.5466065382521819 0.1958931904382073 Q 0.5490739768373452 0.19086907391602675 0.5536323895464298 0.1872450742507874 Q 0.5581908022555145 0.18362107458554805 0.5650417044682072 0.18175690214928525 Q 0.569576808749849 0.18052287250837884 0.573795523046793 0.1804112943709162 Q 0.5780142373437371 0.18029971623345353 0.5815220631153761 0.1810033911270123 Q 0.5850298888870151 0.18170706602057107 0.5875462132574882 0.18314689644897691 Q 0.5900625376279613 0.1845867268773827 0.591192862056661 0.18645551436821328 L 0.5981402558498141 0.18456508598214394 Q 0.5966942007299266 0.18267857476027247 0.5938975931303474 0.18058955921844994 Q 0.5911009855307683 0.17850054367662743 0.5869006542583748 0.17715621588841757 Q 0.5827003229859813 0.1758118881002077 0.5770083086790786 0.17565072628706535 Q 0.5713162943721759 0.17548956447392303 0.5641759174181018 0.17743250475960543 Q 0.5559741330789627 0.17966426049315948 0.5497051278713961 0.18385735883537663 Q 0.5434361226638297 0.18805045717759378 0.5396000782211791 0.19375788768825347 Q 0.5357640337785284 0.1994653181989132 0.534685542657502 0.2065469392634624 Q 0.5336070515364757 0.21362856032801164 0.5357862953704167 0.22163736150622987 Q 0.5376504678066796 0.22848826371892259 0.5415675490291734 0.23431419494889658 Q 0.5454846302516673 0.24014012617887054 0.5513499261079209 0.24398503248704162 Q 0.5572152219641746 0.24782993879521267 0.5649896781762331 0.24897899519364786 Q 0.5727641343882917 0.250128051592083 0.5824132924343377 0.24750245661143114 Q 0.5896501609688722 0.24553326037594225 0.5948134494637713 0.24241830420956656 Q 0.5999767379586706 0.23930334804319087 0.6031182990200377 0.23637579034133394 L 0.604194792962105 0.24033194514021283 L 0.6124930688817046 0.23807393345685224 L 0.6043012125420708 0.20796856035318848 M 0.8648233028974855 0.24441512164239948 Q 0.8524203500054267 0.25092409695018547 0.8389343767416527 0.2471653039086928 Q 0.8314207630661216 0.24507111921414684 0.8263659703253634 0.2408593416383507 Q 0.8213111775846053 0.23664756406255458 0.8186662258440068 0.2312388460730579 Q 0.8160212741034083 0.2258301280835612 0.815630605085842 0.2195963589413236 Q 0.8152399360682755 0.213362589799086 0.8169582414586722 0.2071975734499322 Q 0.8187839409359686 0.20064724357895627 0.8223719425932221 0.1957819333003053 Q 0.8259599442504755 0.19091662302165432 0.830817540478964 0.18801425177025063 Q 0.8356751367074524 0.18511188051884694 0.841446221061497 0.1843327236806545 Q 0.8472173054155415 0.18355356684246207 0.8532859933842398 0.1852450237111338 Q 0.8574281137438275 0.18639951014530654 0.8605792860327494 0.18831591647109747 Q 0.8637304583216711 0.1902323227968884 0.865949912436599 0.19251191123161293 Q 0.8681693665515269 0.19479149966633746 0.8693047185141372 0.1972360805958624 Q 0.8704400704767474 0.1996806615253873 0.8705505501837123 0.20189149716702803 L 0.8776788503374213 0.20387828777467418 Q 0.8771467743692366 0.200200395013312 0.8756616645585552 0.1967759317195654 Q 0.8741765547478738 0.1933514684258188 0.8713688803881542 0.19038887417587952 Q 0.8685612060284347 0.18742627992594027 0.8643559544077242 0.18500845883940137 Q 0.8601507027870137 0.18259063775286247 0.854370999959682 0.1809797264493656 Q 0.8459904308600511 0.17864390505929514 0.838431738614357 0.17913244526734956 Q 0.8308730463686631 0.179620985475404 0.8247118427052211 0.18273098055861373 Q 0.818550639041779 0.18584097564182345 0.8140948662160402 0.191398725953362 Q 0.8096390933903013 0.19695647626490057 0.8074643631305806 0.20475907508179836 Q 0.8055849666098341 0.21150206171368532 0.8059669284753745 0.2185119907527893 Q 0.8063488903409148 0.22552191979189326 0.8094936253534899 0.2317447119064255 Q 0.812638360366065 0.23796750402095776 0.8188246037049827 0.2429617900912281 Q 0.8250108470439004 0.24795607616149845 0.8347400134699087 0.25066777685571817 Q 0.8409050298190625 0.25238608224611486 0.846091795292766 0.2525859920277584 Q 0.8512785607664696 0.2527859018094019 0.8553607241637385 0.2521069747161157 Q 0.8594428875610074 0.2514280476228295 0.8623880675068946 0.25017269305684264 Q 0.8653332474527817 0.24891733849085576 0.8669882442245778 0.24782144356644717 L 0.8648233028974855 0.24441512164239948" fill="url(#gradient-7b079955-49de-42e9-a946-fee3ab2542f0)" fill-rule="nonzero"></path></g><g clip-path="url(&quot;#SvgjsClipPath1003&quot;)"><path d=" M 0 0 L 1.4056868156114946 0 L 1.4056868156114946 1.4056868156114946 L 0 1.4056868156114946 Z" fill="url(#gradient-9ee38a39-2f05-45f3-b8de-ebbac7ff4e0d)" transform="matrix(1,0,0,1,0,0)" fill-rule="nonzero" mask="url(#maskedIcon)"></path></g></g><defs><linearGradient id="gradient-7b079955-49de-42e9-a946-fee3ab2542f0" x1="0" y1="0" x2="0" y2="1"><stop stop-color="#3e7742" offset="0"></stop><stop stop-color="#f7ca4d" offset="1"></stop></linearGradient><clipPath id="SvgjsClipPath1003"><path d=" M 0 0 h 1.4056868156114946 v 1.4056868156114946 h -1.4056868156114946 Z"></path></clipPath><linearGradient id="gradient-9ee38a39-2f05-45f3-b8de-ebbac7ff4e0d" x1="0" x2="0" y1="0" y2="1"><stop stop-color="#3e7742" offset="0"></stop><stop stop-color="#f7ca4d" offset="1"></stop></linearGradient><mask id="maskedIcon"><path d=" M 1.4056868156114946 0.7028434078057473 C 1.4056868156114946 1.091013138717063 1.091013138717063 1.4056868156114946 0.7028434078057473 1.4056868156114946 C 0.3146736768944317 1.4056868156114946 0 1.091013138717063 0 0.7028434078057473 C 0 0.3146736768944317 0.3146736768944317 0 0.7028434078057473 0 C 1.091013138717063 0 1.4056868156114946 0.3146736768944317 1.4056868156114946 0.7028434078057473 Z" fill="#ffffff" transform="matrix(1,0,0,1,0,0)" fill-rule="nonzero"></path><path d=" M 0.466875302693213 0.9034019193128272 C 0.48977065413855986 0.9566584976748298 0.5651367023173506 0.9807850636715856 0.6205675531850325 1.0485280600533557 C 0.6794824792726587 1.1206196014464846 0.6887558824896528 1.222155507856284 0.6831761229268851 1.3108029555577185 C 0.6730120538641912 1.2564723389700192 0.6460563140046236 1.1844069936311752 0.5897086012369562 1.143200600240408 C 0.6192839465250533 1.1907988308767872 0.6183670846250678 1.2373230232874692 0.6446155310189324 1.292125168852304 C 0.6088579169195062 1.2627331959442043 0.5573826702489036 1.2295951872733073 0.5338324174464243 1.204342190942284 C 0.4999609192555392 1.168060655757152 0.4803400745958541 1.1281902611349346 0.4709094950531483 1.0753528196414968 C 0.4607454259904542 1.0184025976252675 0.46394134461326003 0.9604831216004827 0.466875302693213 0.9034019193128272" fill="NA" transform="matrix(1,0,0,1,0,0)" fill-rule="nonzero"></path><path d=" M 0.9387448285342129 0.9002583927985918 C 0.915849477088866 0.953488775106309 0.8404834289100752 0.9776153411030648 0.7850787740966786 1.0453845335391203 C 0.7261376519547672 1.1174236828236785 0.7168904447920584 1.2190119813420486 0.7224440083005408 1.307633232989198 C 0.7326080773632347 1.2533288124557835 0.7595900132770875 1.1812372710626546 0.8159115299904696 1.1400570737261726 C 0.7863361847023727 1.1876291083082664 0.7872268505480726 1.2341794967732336 0.7610046002084935 1.2889554462837833 C 0.7729761970168727 1.2791843180353688 0.7866505373537962 1.2689154647555336 0.800455857962146 1.2587251996385542 C 0.8487089899556576 1.2230461737019838 0.8873743660807515 1.1959070614624194 0.9135180282574749 1.140633386920449 C 0.9338723624371482 1.0976194657839964 0.9401594154656188 1.0498378627676204 0.9414954142341687 0.9994366543227148 C 0.9422812958627276 0.9698613090346178 0.9406309444427541 0.9370114569608592 0.9387448285342129 0.9002583927985918" fill="NA" transform="matrix(1,0,0,1,0,0)" fill-rule="nonzero"></path><path d=" M 0.466875302693213 0.6181268881459759 C 0.48977065413855986 0.6713834665079786 0.5651367023173506 0.695483836450449 0.6205675531850325 0.7632530288865045 C 0.6794824792726587 0.8353183742253482 0.6887558824896528 0.9368804766894328 0.6831761229268851 1.0255017283365822 C 0.6730120538641912 0.9711711117488825 0.6460563140046236 0.8991319624643243 0.5897086012369562 0.8578993730192715 C 0.6192839465250533 0.9054976036556506 0.6183670846250678 0.9520217960663327 0.6446155310189324 1.0068501376854528 C 0.6088579169195062 0.977458164777353 0.5573826702489036 0.9443201561064561 0.5338324174464243 0.9190671597754329 C 0.4999609192555392 0.8827594285360155 0.4803400745958541 0.8429152299680833 0.4709094950531483 0.7900515924203602 C 0.4607454259904542 0.7331275664584164 0.46394134461326003 0.6751818943793462 0.466875302693213 0.6181268881459759" fill="NA" transform="matrix(1,0,0,1,0,0)" fill-rule="nonzero"></path><path d=" M 0.9387448285342129 0.6149833616317407 C 0.915849477088866 0.668213743939458 0.8404834289100752 0.6923141138819284 0.7850787740966786 0.7601095023722692 C 0.7261376519547672 0.8321224556025423 0.7168904447920584 0.9337369501751974 0.7224440083005408 1.022358201822347 C 0.7326080773632347 0.9680275852346473 0.7595900132770875 0.8959360438415183 0.8159115299904696 0.8547558465050363 C 0.7863361847023727 0.9023540771414154 0.7872268505480726 0.9488782695520974 0.7610046002084935 1.0036804151169323 C 0.7729761970168727 0.9938830908142324 0.7866505373537962 0.9836404335886825 0.800455857962146 0.9734239724174178 C 0.8487089899556576 0.9377449464808474 0.8873743660807515 0.9106320302955682 0.9135180282574749 0.855358355753598 C 0.9338723624371482 0.81231823856286 0.9401594154656188 0.7645366355464838 0.9414954142341687 0.7141354271015783 C 0.9422812958627276 0.6845862778677667 0.9406309444427541 0.6517364257940081 0.9387448285342129 0.6149833616317407" fill="NA" transform="matrix(1,0,0,1,0,0)" fill-rule="nonzero"></path><path d=" M 0.466875302693213 0.3327994648705541 C 0.48977065413855986 0.3860298471782714 0.5651367023173506 0.41015641317502716 0.6205675531850325 0.4779256056110826 C 0.6794824792726587 0.5499647548956409 0.6887558824896528 0.6515268573597256 0.6831761229268851 0.7402005011154457 C 0.6730120538641912 0.6858698845277459 0.6460563140046236 0.6138045391889023 0.5897086012369562 0.572598145798135 C 0.6192839465250533 0.6201701803802288 0.6183670846250678 0.6666943727909108 0.6446155310189324 0.7214965183557459 C 0.6088579169195062 0.6921307415019313 0.5573826702489036 0.6589927328310344 0.5338324174464243 0.6337397365000111 C 0.4999609192555392 0.5974320052605936 0.4803400745958541 0.5575878066926615 0.4709094950531483 0.5047503651992236 C 0.4607454259904542 0.44780014318299455 0.46394134461326003 0.3898806671582096 0.466875302693213 0.3327994648705541" fill="NA" transform="matrix(1,0,0,1,0,0)" fill-rule="nonzero"></path><path d=" M 0.9387448285342129 0.32965593835631896 C 0.915849477088866 0.3828863206640363 0.8404834289100752 0.4069866906065068 0.7850787740966786 0.4747820790968475 C 0.7261376519547672 0.5467950323271206 0.7168904447920584 0.6483833308454905 0.7224440083005408 0.7370307785469252 C 0.7326080773632347 0.6827001619592256 0.7595900132770875 0.6106086205660965 0.8159115299904696 0.5694284232296144 C 0.7863361847023727 0.6170004578117083 0.7872268505480726 0.6635508462766756 0.7610046002084935 0.7183267957872252 C 0.7729761970168727 0.7085294714845254 0.7866505373537962 0.6983130103132609 0.800455857962146 0.6880965491419961 C 0.8487089899556576 0.652443719259711 0.8873743660807515 0.6252784109658613 0.9135180282574749 0.5700309324781764 C 0.9338723624371482 0.5269908152874383 0.9401594154656188 0.4792092122710621 0.9414954142341687 0.4288080038261566 C 0.9422812958627276 0.3992326585380597 0.9406309444427541 0.3664090025185864 0.9387448285342129 0.32965593835631896" fill="NA" transform="matrix(1,0,0,1,0,0)" fill-rule="nonzero"></path><path d=" M 0.703582849215129 0.3071273316709661 C 0.703582849215129 0.3071273316709661 0.707774217900776 0.4098944526321743 0.720688872663426 0.5069508337591884 C 0.7686014559512286 0.4063317892493743 0.8787558642208897 0.2854369987227427 0.7028493596951408 0.0948868998515145 C 0.5272048157122449 0.28520123423417504 0.6368353028962 0.4060174365979508 0.6848526704011438 0.5065578929449089 C 0.6977935212180791 0.4090037867864743 0.703582849215129 0.3071273316709661 0.703582849215129 0.3071273316709661" fill="NA" transform="matrix(1,0,0,1,0,0)" fill-rule="nonzero"></path></mask></defs></svg>